<?xml version="1.0" encoding="UTF-8"?>
<svg version="1.1" xmlns="http://www.w3.org/2000/svg" width="275" height="183">
<path d="M0 0 C90.75 0 181.5 0 275 0 C275 60.39 275 120.78 275 183 C184.25 183 93.5 183 0 183 C0 122.61 0 62.22 0 0 Z " fill="#F3F3F4" transform="translate(0,0)"/>
<path d="M0 0 C4.44767978 3.23692251 8.78848552 6.9063003 12.1875 11.25 C12.1875 12.24 12.1875 13.23 12.1875 14.25 C11.58800537 14.28851074 10.98851074 14.32702148 10.37084961 14.36669922 C-1.31779963 14.88463291 -1.31779963 14.88463291 -11.73046875 19.39453125 C-15.30831328 24.36079307 -16.70007511 29.17905577 -16.8125 35.25 C-16.1525 35.58 -15.4925 35.91 -14.8125 36.25 C-18.9920645 39.03637633 -20.95918677 38.04562512 -25.8125 37.25 C-25.8125 38.24 -25.8125 39.23 -25.8125 40.25 C-27.1325 40.58 -28.4525 40.91 -29.8125 41.25 C-29.8125 41.91 -29.8125 42.57 -29.8125 43.25 C-34.28308824 47.25 -34.28308824 47.25 -36.8125 47.25 C-37.1425 48.57 -37.4725 49.89 -37.8125 51.25 C-38.4725 51.25 -39.1325 51.25 -39.8125 51.25 C-40.10125 51.8275 -40.39 52.405 -40.6875 53 C-41.244375 54.11375 -41.244375 54.11375 -41.8125 55.25 C-42.121875 55.971875 -42.43125 56.69375 -42.75 57.4375 C-43.8125 59.25 -43.8125 59.25 -46.8125 60.25 C-47.1425 60.91 -47.4725 61.57 -47.8125 62.25 C-48.4725 62.25 -49.1325 62.25 -49.8125 62.25 C-49.78929687 63.26320313 -49.76609375 64.27640625 -49.7421875 65.3203125 C-49.7234159 66.67186758 -49.7052172 68.02343069 -49.6875 69.375 C-49.67074219 70.04015625 -49.65398437 70.7053125 -49.63671875 71.390625 C-49.59393778 75.75428393 -50.2453803 79.1902962 -51.8125 83.25 C-51.8125 83.58 -51.8125 83.91 -51.8125 84.25 C-59.96707118 84.29658819 -68.12158563 84.33200252 -76.27625751 84.35362434 C-80.06385859 84.36400803 -83.85136779 84.37806668 -87.63891602 84.40087891 C-91.30235367 84.4228025 -94.96570363 84.43460921 -98.62920189 84.43975449 C-100.01845871 84.44341557 -101.4077114 84.45056337 -102.79693031 84.46146011 C-115.92144306 84.56019858 -127.61670006 83.68662624 -138.8125 76.25 C-144.77068902 70.36095824 -147.1022829 64.280254 -147.1875 55.9375 C-147.15940622 49.82192812 -146.49585513 45.22195925 -142.8125 40.25 C-142.36519531 39.62609375 -141.91789062 39.0021875 -141.45703125 38.359375 C-136.75113973 32.35400137 -131.15763367 29.3141434 -123.8125 27.25 C-120.3828125 27.0546875 -120.3828125 27.0546875 -116.9375 27.125 C-115.78507812 27.14304688 -114.63265625 27.16109375 -113.4453125 27.1796875 C-112.14207031 27.21449219 -112.14207031 27.21449219 -110.8125 27.25 C-110.544375 26.5075 -110.27625 25.765 -110 25 C-106.81329821 17.62026953 -101.27340523 13.47199535 -94.14453125 10.16015625 C-85.95252052 6.96293933 -77.5992209 7.71506302 -69.63671875 11.203125 C-66.53495042 12.72282136 -63.69187971 14.33041353 -60.8125 16.25 C-60.5340625 15.26 -60.5340625 15.26 -60.25 14.25 C-55.97964669 5.33795831 -47.72656473 -1.32159628 -38.75 -5.125 C-25.8113287 -9.384203 -11.4717509 -7.177198 0 0 Z " fill="#042C9E" transform="translate(179.8125,44.75)"/>
<path d="M0 0 C4.337338 5.70898186 5.93607306 14.64119407 5.28076172 21.68579102 C6.06580078 21.66258789 6.85083984 21.63938477 7.65966797 21.61547852 C16.28425503 21.4673261 22.6038562 22.56647586 30.28076172 26.68579102 C30.28076172 27.34579102 30.28076172 28.00579102 30.28076172 28.68579102 C31.27076172 28.68579102 32.26076172 28.68579102 33.28076172 28.68579102 C34.27076172 32.64579102 34.27076172 32.64579102 35.28076172 36.68579102 C36.60076172 36.68579102 37.92076172 36.68579102 39.28076172 36.68579102 C41.23097708 43.14587939 41.50338475 48.95762832 41.28076172 55.68579102 C40.29076172 56.18079102 40.29076172 56.18079102 39.28076172 56.68579102 C39.36326172 57.59329102 39.44576172 58.50079102 39.53076172 59.43579102 C39.28076172 62.68579102 39.28076172 62.68579102 37.59326172 64.87329102 C31.8186963 69.39930175 28.0967477 70.11459785 20.90063477 70.02636719 C19.96356186 70.02680527 19.02648895 70.02724335 18.0610199 70.0276947 C14.971293 70.0256088 11.88211229 70.00228679 8.79248047 69.97875977 C6.64728593 69.97316311 4.50208756 69.96889334 2.35688782 69.96589661 C-3.28368758 69.95445333 -8.92403049 69.92499038 -14.56451416 69.89178467 C-20.32243709 69.86107277 -26.08039765 69.84738886 -31.83837891 69.83227539 C-43.13210073 69.80012037 -54.42565016 69.74893008 -65.71923828 69.68579102 C-66.71923828 66.68579102 -66.71923828 66.68579102 -65.78564453 64.77172852 C-65.43373047 64.08336914 -65.08181641 63.39500977 -64.71923828 62.68579102 C-64.5157353 60.52565239 -64.5157353 60.52565239 -64.65673828 58.31079102 C-64.74769813 54.64207718 -64.45986951 51.29636824 -63.71923828 47.68579102 C-63.05923828 47.68579102 -62.39923828 47.68579102 -61.71923828 47.68579102 C-61.38923828 46.69579102 -61.05923828 45.70579102 -60.71923828 44.68579102 C-59.72923828 44.68579102 -58.73923828 44.68579102 -57.71923828 44.68579102 C-57.65736328 44.12891602 -57.59548828 43.57204102 -57.53173828 42.99829102 C-56.3914485 39.75285088 -54.1562766 38.06190337 -51.71923828 35.68579102 C-51.38923828 34.69579102 -51.05923828 33.70579102 -50.71923828 32.68579102 C-46.26209542 28.68579102 -46.26209542 28.68579102 -43.71923828 28.68579102 C-43.71923828 28.02579102 -43.71923828 27.36579102 -43.71923828 26.68579102 C-42.39923828 26.35579102 -41.07923828 26.02579102 -39.71923828 25.68579102 C-39.71923828 24.69579102 -39.71923828 23.70579102 -39.71923828 22.68579102 C-37.07923828 22.68579102 -34.43923828 22.68579102 -31.71923828 22.68579102 C-31.38923828 22.02579102 -31.05923828 21.36579102 -30.71923828 20.68579102 C-30.92548828 20.12891602 -31.13173828 19.57204102 -31.34423828 18.99829102 C-32.12915084 14.15799691 -28.81528801 9.54179409 -26.26611328 5.58813477 C-23.69336471 2.21425578 -21.79206094 1.02607639 -17.64501953 0.14282227 C-15.77846461 -0.10841945 -13.90659012 -0.32259943 -12.03173828 -0.50170898 C-11.08234375 -0.63383789 -10.13294922 -0.7659668 -9.15478516 -0.90209961 C-2.25905741 -1.72685402 -2.25905741 -1.72685402 0 0 Z " fill="#78F0FD" transform="translate(193.71923828125,59.314208984375)"/>
<path d="M0 0 C3.55611617 2.78763344 6.80100004 5.81273949 10 9 C10.58910156 9.52464844 11.17820312 10.04929687 11.78515625 10.58984375 C13 12 13 12 13 15 C12.40050537 15.03851074 11.80101074 15.07702148 11.18334961 15.11669922 C-0.50529963 15.63463291 -0.50529963 15.63463291 -10.91796875 20.14453125 C-14.49581328 25.11079307 -15.88757511 29.92905577 -16 36 C-15.34 36.33 -14.68 36.66 -14 37 C-18.1795645 39.78637633 -20.14668677 38.79562512 -25 38 C-25 38.99 -25 39.98 -25 41 C-26.32 41.33 -27.64 41.66 -29 42 C-29 42.66 -29 43.32 -29 44 C-33.47058824 48 -33.47058824 48 -36 48 C-36.33 49.32 -36.66 50.64 -37 52 C-37.66 52 -38.32 52 -39 52 C-39.28875 52.5775 -39.5775 53.155 -39.875 53.75 C-40.431875 54.86375 -40.431875 54.86375 -41 56 C-41.309375 56.721875 -41.61875 57.44375 -41.9375 58.1875 C-43 60 -43 60 -46 61 C-46.33 61.66 -46.66 62.32 -47 63 C-47.66 63 -48.32 63 -49 63 C-48.97679687 64.01320313 -48.95359375 65.02640625 -48.9296875 66.0703125 C-48.9109159 67.42186758 -48.8927172 68.77343069 -48.875 70.125 C-48.85824219 70.79015625 -48.84148437 71.4553125 -48.82421875 72.140625 C-48.78143778 76.50428393 -49.4328803 79.9402962 -51 84 C-51 84.33 -51 84.66 -51 85 C-72.12 85 -93.24 85 -115 85 C-115 84.67 -115 84.34 -115 84 C-111.7 84 -108.4 84 -105 84 C-103.70764285 79.08497242 -103.88864483 74.22709898 -103.9375 69.1875 C-103.94201172 68.30384766 -103.94652344 67.42019531 -103.95117188 66.50976562 C-103.96290134 64.33981441 -103.98083505 62.16989828 -104 60 C-103.01 60 -102.02 60 -101 60 C-101 60.66 -101 61.32 -101 62 C-100.34 62 -99.68 62 -99 62 C-98.93941406 60.77023438 -98.87882812 59.54046875 -98.81640625 58.2734375 C-98.73194995 56.64061573 -98.64730453 55.00780373 -98.5625 53.375 C-98.52318359 52.56675781 -98.48386719 51.75851563 -98.44335938 50.92578125 C-98.21203918 46.54849135 -97.83079083 42.31452719 -97 38 C-96.34 38.33 -95.68 38.66 -95 39 C-95.1395053 42.39612414 -95.28772322 45.79181458 -95.4375 49.1875 C-95.47681641 50.14720703 -95.51613281 51.10691406 -95.55664062 52.09570312 C-95.59853516 53.02705078 -95.64042969 53.95839844 -95.68359375 54.91796875 C-95.72025146 55.77156982 -95.75690918 56.6251709 -95.79467773 57.50463867 C-96.00531094 60.06454594 -96.44841536 62.49333243 -97 65 C-95.68 65.33 -94.36 65.66 -93 66 C-93 66.66 -93 67.32 -93 68 C-92.34 68 -91.68 68 -91 68 C-91 65.36 -91 62.72 -91 60 C-90.34 60 -89.68 60 -89 60 C-88.690625 59.05125 -88.38125 58.1025 -88.0625 57.125 C-87 54 -87 54 -86 52 C-85.01 52 -84.02 52 -83 52 C-83 51.01 -83 50.02 -83 49 C-82.01 48.34 -81.02 47.68 -80 47 C-79.67 46.01 -79.34 45.02 -79 44 C-76.9375 42.3125 -76.9375 42.3125 -75 41 C-74.01 41.495 -74.01 41.495 -73 42 C-73 42.66 -73 43.32 -73 44 C-71.35 43.34 -69.7 42.68 -68 42 C-68 41.01 -68 40.02 -68 39 C-67.34 38.67 -66.68 38.34 -66 38 C-66.33 37.67 -66.66 37.34 -67 37 C-67.04080783 35.00041636 -67.04254356 32.99954746 -67 31 C-67.66 31 -68.32 31 -69 31 C-69.99 28.03 -70.98 25.06 -72 22 C-71.01 22 -70.02 22 -69 22 C-68.773125 22.61875 -68.54625 23.2375 -68.3125 23.875 C-66.61545208 26.62260139 -64.97485929 26.93210179 -62 28 C-61.67 28.66 -61.34 29.32 -61 30 C-60.01 30.33 -59.02 30.66 -58 31 C-57.505 33.97 -57.505 33.97 -57 37 C-56.34 37 -55.68 37 -55 37 C-55 36.01 -55 35.02 -55 34 C-54.34 34 -53.68 34 -53 34 C-53.99 31.03 -54.98 28.06 -56 25 C-52.10331305 21.65677722 -48.09017505 19.28033485 -43.5625 16.9375 C-42.91990234 16.59912109 -42.27730469 16.26074219 -41.61523438 15.91210938 C-37.76748508 13.89252929 -33.8901726 11.93671433 -30 10 C-28.96875 9.46375 -27.9375 8.9275 -26.875 8.375 C-22.23076923 6.15384615 -22.23076923 6.15384615 -20 6 C-18.375 7.4375 -18.375 7.4375 -17 9 C-16.34 9 -15.68 9 -15 9 C-15 5.04 -15 1.08 -15 -3 C-8.68919749 -4.2621605 -5.52109216 -3.08766281 0 0 Z " fill="#134FC7" transform="translate(179,44)"/>
<path d="M0 0 C4.337338 5.70898186 5.93607306 14.64119407 5.28076172 21.68579102 C8.25076172 21.68579102 11.22076172 21.68579102 14.28076172 21.68579102 C14.28076172 22.34579102 14.28076172 23.00579102 14.28076172 23.68579102 C13.62076172 23.68579102 12.96076172 23.68579102 12.28076172 23.68579102 C12.28076172 24.34579102 12.28076172 25.00579102 12.28076172 25.68579102 C11.62076172 26.01579102 10.96076172 26.34579102 10.28076172 26.68579102 C10.28076172 27.34579102 10.28076172 28.00579102 10.28076172 28.68579102 C12.26076172 29.67579102 14.24076172 30.66579102 16.28076172 31.68579102 C16.28076172 32.67579102 16.28076172 33.66579102 16.28076172 34.68579102 C16.94076172 34.68579102 17.60076172 34.68579102 18.28076172 34.68579102 C17.70500508 38.03829803 16.68769909 39.62397731 14.21826172 41.93579102 C13.39648438 42.71696289 13.39648438 42.71696289 12.55810547 43.51391602 C12.13658203 43.90063477 11.71505859 44.28735352 11.28076172 44.68579102 C10.62076172 44.35579102 9.96076172 44.02579102 9.28076172 43.68579102 C9.94076172 43.06704102 10.60076172 42.44829102 11.28076172 41.81079102 C13.50921662 39.92941675 13.50921662 39.92941675 13.28076172 37.68579102 C12.62076172 37.68579102 11.96076172 37.68579102 11.28076172 37.68579102 C10.95076172 38.67579102 10.62076172 39.66579102 10.28076172 40.68579102 C8.21826172 41.37329102 8.21826172 41.37329102 6.28076172 41.68579102 C7.28076172 37.68579102 7.28076172 37.68579102 7.90576172 35.74829102 C8.37268517 33.18021201 7.80167773 31.22525657 7.28076172 28.68579102 C7.77576172 27.20079102 7.77576172 27.20079102 8.28076172 25.68579102 C5.83596093 25.87407873 5.83596093 25.87407873 3.28076172 26.68579102 C1.92056021 28.65337375 1.92056021 28.65337375 1.28076172 30.68579102 C0.95076172 30.68579102 0.62076172 30.68579102 0.28076172 30.68579102 C0.61076172 28.37579102 0.94076172 26.06579102 1.28076172 23.68579102 C-0.35892578 23.93329102 -0.35892578 23.93329102 -2.03173828 24.18579102 C-3.59349115 24.35931911 -5.15609408 24.52527858 -6.71923828 24.68579102 C-7.58677734 24.80051758 -8.45431641 24.91524414 -9.34814453 25.03344727 C-15.4675468 25.51220562 -18.56924214 24.56536713 -23.40673828 20.68579102 C-24.86712996 19.37757079 -26.3131593 18.05221918 -27.71923828 16.68579102 C-27.17783203 17.73379883 -27.17783203 17.73379883 -26.62548828 18.80297852 C-26.16142578 19.71305664 -25.69736328 20.62313477 -25.21923828 21.56079102 C-24.75517578 22.46571289 -24.29111328 23.37063477 -23.81298828 24.30297852 C-22.71923828 26.68579102 -22.71923828 26.68579102 -22.71923828 28.68579102 C-22.05923828 28.68579102 -21.39923828 28.68579102 -20.71923828 28.68579102 C-20.43048828 29.42829102 -20.14173828 30.17079102 -19.84423828 30.93579102 C-18.849292 33.6367985 -18.849292 33.6367985 -17.40673828 35.62329102 C-16.71923828 37.68579102 -16.71923828 37.68579102 -18.09423828 40.93579102 C-18.63048828 41.84329102 -19.16673828 42.75079102 -19.71923828 43.68579102 C-20.70923828 43.68579102 -21.69923828 43.68579102 -22.71923828 43.68579102 C-25.42047906 50.51946835 -25.42047906 50.51946835 -24.71923828 57.68579102 C-26.71923828 59.68579102 -26.71923828 59.68579102 -28.66455078 59.88110352 C-30.68277995 59.81599935 -32.70100911 59.75089518 -34.71923828 59.68579102 C-34.71923828 60.34579102 -34.71923828 61.00579102 -34.71923828 61.68579102 C-39.10385367 64.68579102 -39.10385367 64.68579102 -41.71923828 64.68579102 C-42.37923828 66.00579102 -43.03923828 67.32579102 -43.71923828 68.68579102 C-51.30923828 68.68579102 -58.89923828 68.68579102 -66.71923828 68.68579102 C-66.05923828 66.70579102 -65.39923828 64.72579102 -64.71923828 62.68579102 C-64.51684231 60.37426961 -64.51684231 60.37426961 -64.65673828 58.18579102 C-64.74873094 54.56128021 -64.45095936 51.25293128 -63.71923828 47.68579102 C-63.05923828 47.68579102 -62.39923828 47.68579102 -61.71923828 47.68579102 C-61.38923828 46.69579102 -61.05923828 45.70579102 -60.71923828 44.68579102 C-59.72923828 44.68579102 -58.73923828 44.68579102 -57.71923828 44.68579102 C-57.65736328 44.12891602 -57.59548828 43.57204102 -57.53173828 42.99829102 C-56.3914485 39.75285088 -54.1562766 38.06190337 -51.71923828 35.68579102 C-51.38923828 34.69579102 -51.05923828 33.70579102 -50.71923828 32.68579102 C-46.26209542 28.68579102 -46.26209542 28.68579102 -43.71923828 28.68579102 C-43.71923828 28.02579102 -43.71923828 27.36579102 -43.71923828 26.68579102 C-42.39923828 26.35579102 -41.07923828 26.02579102 -39.71923828 25.68579102 C-39.71923828 24.69579102 -39.71923828 23.70579102 -39.71923828 22.68579102 C-37.07923828 22.68579102 -34.43923828 22.68579102 -31.71923828 22.68579102 C-31.38923828 22.02579102 -31.05923828 21.36579102 -30.71923828 20.68579102 C-30.92548828 20.12891602 -31.13173828 19.57204102 -31.34423828 18.99829102 C-32.12915084 14.15799691 -28.81528801 9.54179409 -26.26611328 5.58813477 C-23.69336471 2.21425578 -21.79206094 1.02607639 -17.64501953 0.14282227 C-15.77846461 -0.10841945 -13.90659012 -0.32259943 -12.03173828 -0.50170898 C-11.08234375 -0.63383789 -10.13294922 -0.7659668 -9.15478516 -0.90209961 C-2.25905741 -1.72685402 -2.25905741 -1.72685402 0 0 Z " fill="#53D4FB" transform="translate(193.71923828125,59.314208984375)"/>
<path d="M0 0 C4.64977344 0.50724801 8.24744919 2.38650131 12.4375 4.375 C15.97073094 5.94532486 19.19407022 7.375 23.125 7.375 C26.28576745 6.00818164 28.15909325 3.91379609 30.4375 1.375 C31.48199911 4.50849732 31.37173645 5.36468256 30.4375 8.375 C31.4275 8.87 31.4275 8.87 32.4375 9.375 C28.2579355 12.16137633 26.29081323 11.17062512 21.4375 10.375 C21.4375 11.365 21.4375 12.355 21.4375 13.375 C20.1175 13.705 18.7975 14.035 17.4375 14.375 C17.4375 15.035 17.4375 15.695 17.4375 16.375 C12.96691176 20.375 12.96691176 20.375 10.4375 20.375 C10.1075 21.695 9.7775 23.015 9.4375 24.375 C8.7775 24.375 8.1175 24.375 7.4375 24.375 C7.14875 24.9525 6.86 25.53 6.5625 26.125 C6.005625 27.23875 6.005625 27.23875 5.4375 28.375 C4.9734375 29.4578125 4.9734375 29.4578125 4.5 30.5625 C3.4375 32.375 3.4375 32.375 0.4375 33.375 C-0.0575 34.365 -0.0575 34.365 -0.5625 35.375 C-1.2225 35.375 -1.8825 35.375 -2.5625 35.375 C-2.53929687 36.38820312 -2.51609375 37.40140625 -2.4921875 38.4453125 C-2.4734159 39.79686758 -2.4552172 41.14843069 -2.4375 42.5 C-2.42074219 43.16515625 -2.40398437 43.8303125 -2.38671875 44.515625 C-2.34393778 48.87928393 -2.9953803 52.3152962 -4.5625 56.375 C-4.5625 56.705 -4.5625 57.035 -4.5625 57.375 C-25.6825 57.375 -46.8025 57.375 -68.5625 57.375 C-68.5625 57.045 -68.5625 56.715 -68.5625 56.375 C-54.3725 56.375 -40.1825 56.375 -25.5625 56.375 C-25.8925 51.095 -26.2225 45.815 -26.5625 40.375 C-23.8203125 34.1875 -23.8203125 34.1875 -21.5625 31.375 C-22.2225 31.375 -22.8825 31.375 -23.5625 31.375 C-23.830625 32.014375 -24.09875 32.65375 -24.375 33.3125 C-25.5625 35.375 -25.5625 35.375 -28.5625 36.375 C-28.05646008 34.20625748 -27.56266187 32.37532373 -26.5625 30.375 C-25.758125 29.900625 -24.95375 29.42625 -24.125 28.9375 C-21.3269028 27.47835955 -21.3269028 27.47835955 -19.5625 24.375 C-18.5725 24.375 -17.5825 24.375 -16.5625 24.375 C-16.0675 25.86 -16.0675 25.86 -15.5625 27.375 C-15.0675 25.89 -15.0675 25.89 -14.5625 24.375 C-11.60825935 22.70521181 -8.7810509 21.4478503 -5.5625 20.375 C-5.5625 19.715 -5.5625 19.055 -5.5625 18.375 C-4.2425 18.375 -2.9225 18.375 -1.5625 18.375 C-2.51308352 10.26281475 -2.51308352 10.26281475 -4.5625 2.375 C-2.5625 0.375 -2.5625 0.375 0 0 Z " fill="#266FE8" transform="translate(132.5625,71.625)"/>
<path d="M0 0 C3.375 0.5625 3.375 0.5625 7 2 C8.625 5.375 8.625 5.375 9 9 C8.01439389 10.34400833 7.01241685 11.67607028 6 13 C5.8123508 15.25605518 5.87429487 17.42398509 5.9921875 19.68359375 C6.00081299 22.24105139 5.5702635 24.51277379 5 27 C5.68707031 27.10957031 6.37414062 27.21914062 7.08203125 27.33203125 C8.43361328 27.56986328 8.43361328 27.56986328 9.8125 27.8125 C10.70582031 27.96332031 11.59914063 28.11414063 12.51953125 28.26953125 C15.18321256 29.05395393 16.25690322 29.88627799 18 32 C14.91190305 33.76462683 13.76687864 34 10 34 C10 33.34 10 32.68 10 32 C6.99615946 32.6954344 6.99615946 32.6954344 4 34 C3.26676204 36.01508358 3.26676204 36.01508358 3 38 C1.515 38.495 1.515 38.495 0 39 C0 39.99 0 40.98 0 42 C-0.99 42 -1.98 42 -3 42 C-3.309375 42.94875 -3.61875 43.8975 -3.9375 44.875 C-5 48 -5 48 -6 50 C-6.66 50 -7.32 50 -8 50 C-8 52.64 -8 55.28 -8 58 C-8.66 58 -9.32 58 -10 58 C-10 57.34 -10 56.68 -10 56 C-11.32 55.67 -12.64 55.34 -14 55 C-13.67 46.42 -13.34 37.84 -13 29 C-13.33 29.33 -13.66 29.66 -14 30 C-15.67542976 29.71395102 -17.34385343 29.38218767 -19 29 C-19 23.04387545 -15.83460789 20.25242918 -11.98828125 16.16015625 C-9.65053911 13.62033031 -7.85539513 10.90678571 -6 8 C-4.03039464 5.31016581 -2.0196163 2.6524294 0 0 Z " fill="#0633C1" transform="translate(96,54)"/>
<path d="M0 0 C0 0.33 0 0.66 0 1 C-1.65 1 -3.3 1 -5 1 C-4.7525 2.5778125 -4.7525 2.5778125 -4.5 4.1875 C-4.10430322 7.20468796 -3.90821029 9.97093972 -4 13 C-4.99 13.33 -5.98 13.66 -7 14 C-7.99 13.34 -8.98 12.68 -10 12 C-10 11.34 -10 10.68 -10 10 C-10.721875 10.45375 -11.44375 10.9075 -12.1875 11.375 C-15 13 -15 13 -17.08984375 13.79296875 C-22.20090201 15.91285734 -27.00324873 18.66453662 -31.875 21.27929688 C-45.76725241 28.67747256 -45.76725241 28.67747256 -52 28 C-54.875 27 -54.875 27 -57 26 C-57 25.01 -57 24.02 -57 23 C-58.98 22.67 -60.96 22.34 -63 22 C-63.33 19.69 -63.66 17.38 -64 15 C-60.2397015 15.58107632 -57.46964968 16.65199496 -54.1875 18.5625 C-53.39730469 19.01753906 -52.60710937 19.47257812 -51.79296875 19.94140625 C-51.20128906 20.29074219 -50.60960938 20.64007813 -50 21 C-49.814375 20.34 -49.62875 19.68 -49.4375 19 C-45.16714669 10.08795831 -36.91406473 3.42840372 -27.9375 -0.375 C-18.74532912 -3.45187728 -9.12241245 -2.92385014 0 0 Z " fill="#021886" transform="translate(169,40)"/>
<path d="M0 0 C5.80165739 0.97458672 10.83982722 2.01253155 16 5 C16 5.66 16 6.32 16 7 C16.99 7 17.98 7 19 7 C19.66 9.64 20.32 12.28 21 15 C22.32 15 23.64 15 25 15 C26.95021536 21.46008837 27.22262303 27.2718373 27 34 C26.01 34.495 26.01 34.495 25 35 C25.12375 36.36125 25.12375 36.36125 25.25 37.75 C25 41 25 41 23.3125 43.1875 C17.85399924 47.46578438 14.86854085 48.34924784 8 48 C8 47.67 8 47.34 8 47 C10.64 46.67 13.28 46.34 16 46 C16 45.34 16 44.68 16 44 C16.66 43.54625 17.32 43.0925 18 42.625 C18.66 42.08875 19.32 41.5525 20 41 C20 39.68 20 38.36 20 37 C18.56208484 37.14168137 17.1246763 37.28851043 15.6875 37.4375 C14.88699219 37.51871094 14.08648437 37.59992188 13.26171875 37.68359375 C10.83912821 37.95265693 10.83912821 37.95265693 8 39 C8 38.01 8 37.02 8 36 C7.34 36 6.68 36 6 36 C5.04380267 32.00204108 4.8960408 28.29196078 4.9375 24.1875 C4.94652344 23.02605469 4.95554688 21.86460938 4.96484375 20.66796875 C4.97644531 19.78753906 4.98804688 18.90710938 5 18 C4.34 18.33 3.68 18.66 3 19 C3.33 17.02 3.66 15.04 4 13 C3.34 13 2.68 13 2 13 C2 12.01 2 11.02 2 10 C1.401875 9.87625 0.80375 9.7525 0.1875 9.625 C-2 9 -2 9 -5 7 C-4.67 6.01 -4.34 5.02 -4 4 C-3.34 4 -2.68 4 -2 4 C-2 3.34 -2 2.68 -2 2 C-1.34 2 -0.68 2 0 2 C0 1.34 0 0.68 0 0 Z " fill="#88E8FA" transform="translate(208,81)"/>
<path d="M0 0 C0.66 0.33 1.32 0.66 2 1 C1.8604947 4.39612414 1.71227678 7.79181458 1.5625 11.1875 C1.50352539 12.62706055 1.50352539 12.62706055 1.44335938 14.09570312 C1.40146484 15.02705078 1.35957031 15.95839844 1.31640625 16.91796875 C1.26141968 18.19837036 1.26141968 18.19837036 1.20532227 19.50463867 C0.99468906 22.06454594 0.55158464 24.49333243 0 27 C1.32 27.33 2.64 27.66 4 28 C4 28.66 4 29.32 4 30 C4.66 30 5.32 30 6 30 C6 27.36 6 24.72 6 22 C6.66 22 7.32 22 8 22 C8.28875 21.05125 8.5775 20.1025 8.875 19.125 C10 16 10 16 12 14 C11.835 14.94875 11.67 15.8975 11.5 16.875 C10.9473365 19.80168901 10.9473365 19.80168901 11 22 C14.3 22 17.6 22 21 22 C21.67885987 24.49723452 22.34317427 26.99696141 23 29.5 C23.19078125 30.19609375 23.3815625 30.8921875 23.578125 31.609375 C23.75859375 32.30546875 23.9390625 33.0015625 24.125 33.71875 C24.37636719 34.66137695 24.37636719 34.66137695 24.6328125 35.62304688 C25.16121706 39.04362318 25 42.53885082 25 46 C14.11 46 3.22 46 -8 46 C-7.67 44.35 -7.34 42.7 -7 41 C-6.92404744 39.45334453 -6.89180985 37.90395219 -6.90234375 36.35546875 C-6.90556641 35.51435547 -6.90878906 34.67324219 -6.91210938 33.80664062 C-6.92048828 32.94232422 -6.92886719 32.07800781 -6.9375 31.1875 C-6.94201172 30.30384766 -6.94652344 29.42019531 -6.95117188 28.50976562 C-6.96290134 26.33981441 -6.98083505 24.16989828 -7 22 C-6.01 22 -5.02 22 -4 22 C-4 22.66 -4 23.32 -4 24 C-3.34 24 -2.68 24 -2 24 C-1.93941406 22.77023438 -1.87882812 21.54046875 -1.81640625 20.2734375 C-1.73194995 18.64061573 -1.64730453 17.00780373 -1.5625 15.375 C-1.52318359 14.56675781 -1.48386719 13.75851563 -1.44335938 12.92578125 C-1.21203918 8.54849135 -0.83079083 4.31452719 0 0 Z " fill="#044FB8" transform="translate(82,82)"/>
<path d="M0 0 C4.29469393 5.77120176 5.92585608 14.62688116 5.26757812 21.70336914 C8.23757812 21.70336914 11.20757812 21.70336914 14.26757812 21.70336914 C14.26757812 22.36336914 14.26757812 23.02336914 14.26757812 23.70336914 C13.60757813 23.70336914 12.94757813 23.70336914 12.26757812 23.70336914 C12.26757812 24.36336914 12.26757812 25.02336914 12.26757812 25.70336914 C11.27757812 26.19836914 11.27757812 26.19836914 10.26757812 26.70336914 C10.26757812 27.36336914 10.26757812 28.02336914 10.26757812 28.70336914 C12.24757812 29.69336914 14.22757813 30.68336914 16.26757812 31.70336914 C16.26757812 32.69336914 16.26757812 33.68336914 16.26757812 34.70336914 C16.92757812 34.70336914 17.58757812 34.70336914 18.26757812 34.70336914 C17.69182149 38.05587616 16.6745155 39.64155543 14.20507812 41.95336914 C13.38330078 42.73454102 13.38330078 42.73454102 12.54492188 43.53149414 C12.12339844 43.91821289 11.701875 44.30493164 11.26757812 44.70336914 C10.27757812 44.20836914 10.27757812 44.20836914 9.26757812 43.70336914 C9.92757812 43.08461914 10.58757812 42.46586914 11.26757812 41.82836914 C13.49603302 39.94699487 13.49603302 39.94699487 13.26757812 37.70336914 C12.60757813 37.70336914 11.94757813 37.70336914 11.26757812 37.70336914 C10.93757813 38.69336914 10.60757813 39.68336914 10.26757812 40.70336914 C8.20507812 41.39086914 8.20507812 41.39086914 6.26757812 41.70336914 C7.26757812 37.70336914 7.26757812 37.70336914 7.89257812 35.76586914 C8.35950158 33.19779014 7.78849414 31.2428347 7.26757812 28.70336914 C7.59757812 27.71336914 7.92757812 26.72336914 8.26757812 25.70336914 C5.82277734 25.89165686 5.82277734 25.89165686 3.26757812 26.70336914 C1.90737661 28.67095187 1.90737661 28.67095187 1.26757812 30.70336914 C0.93757813 30.70336914 0.60757813 30.70336914 0.26757812 30.70336914 C0.59757812 28.39336914 0.92757812 26.08336914 1.26757812 23.70336914 C-0.40304688 23.95086914 -0.40304688 23.95086914 -2.10742188 24.20336914 C-5.43402626 24.62706491 -8.66856281 24.75686074 -12.02148438 24.73461914 C-12.90787598 24.73010742 -13.79426758 24.7255957 -14.70751953 24.72094727 C-15.3757373 24.71514648 -16.04395508 24.7093457 -16.73242188 24.70336914 C-17.73916647 21.43457298 -18.73664676 18.16302204 -19.73242188 14.89086914 C-20.01859375 13.96209961 -20.30476562 13.03333008 -20.59960938 12.07641602 C-20.8703125 11.18374023 -21.14101562 10.29106445 -21.41992188 9.37133789 C-21.67128906 8.54915771 -21.92265625 7.72697754 -22.18164062 6.87988281 C-22.73242188 4.70336914 -22.73242188 4.70336914 -22.73242188 1.70336914 C-19.29903069 1.11352671 -15.8606301 0.56126516 -12.41992188 0.01586914 C-11.44345703 -0.15235352 -10.46699219 -0.32057617 -9.4609375 -0.49389648 C-8.05424805 -0.71142578 -8.05424805 -0.71142578 -6.61914062 -0.93334961 C-5.32302856 -1.14544067 -5.32302856 -1.14544067 -4.00073242 -1.36181641 C-1.73242188 -1.29663086 -1.73242188 -1.29663086 0 0 Z " fill="#66CEF8" transform="translate(193.732421875,59.296630859375)"/>
<path d="M0 0 C0.99 0 1.98 0 3 0 C3.495 1.485 3.495 1.485 4 3 C4.66 2.01 5.32 1.02 6 0 C7.125 5.75 7.125 5.75 6 8 C7.98 8 9.96 8 12 8 C11.67 8.99 11.34 9.98 11 11 C12.32 11 13.64 11 15 11 C17.47716653 18.43149958 17.92800019 24.49699953 15 32 C15 32.33 15 32.66 15 33 C-6.12 33 -27.24 33 -49 33 C-49 32.67 -49 32.34 -49 32 C-34.81 32 -20.62 32 -6 32 C-6.33 26.72 -6.66 21.44 -7 16 C-4.2578125 9.8125 -4.2578125 9.8125 -2 7 C-2.66 7 -3.32 7 -4 7 C-4.268125 7.639375 -4.53625 8.27875 -4.8125 8.9375 C-6 11 -6 11 -9 12 C-8.49396008 9.83125748 -8.00016187 8.00032373 -7 6 C-5.7934375 5.2884375 -5.7934375 5.2884375 -4.5625 4.5625 C-1.7644028 3.10335955 -1.7644028 3.10335955 0 0 Z " fill="#1E77E4" transform="translate(113,96)"/>
<path d="M0 0 C0.66 0 1.32 0 2 0 C2 1.65 2 3.3 2 5 C4.475 5.495 4.475 5.495 7 6 C6.98839844 6.90363281 6.97679687 7.80726562 6.96484375 8.73828125 C6.95582031 9.91777344 6.94679687 11.09726563 6.9375 12.3125 C6.92589844 13.48425781 6.91429687 14.65601562 6.90234375 15.86328125 C6.85100102 19.03059195 6.85100102 19.03059195 8 22 C8.66 22.33 9.32 22.66 10 23 C10 24.32 10 25.64 10 27 C-3.86 27 -17.72 27 -32 27 C-29.90900184 22.81800367 -29.00681267 22.00340633 -25 20 C-24.34 20 -23.68 20 -23 20 C-23 19.34 -23 18.68 -23 18 C-19.04 17.505 -19.04 17.505 -15 17 C-13.95550089 13.86650268 -14.06576355 13.01031744 -15 10 C-14.34 10 -13.68 10 -13 10 C-12.87625 8.700625 -12.7525 7.40125 -12.625 6.0625 C-12.4140625 3.84765625 -12.4140625 3.84765625 -12 2 C-11.34 1.67 -10.68 1.34 -10 1 C-7.875 1.9375 -7.875 1.9375 -6 3 C-6 4.65 -6 6.3 -6 8 C-7.65 8.33 -9.3 8.66 -11 9 C-11 9.99 -11 10.98 -11 12 C-10.566875 11.505 -10.13375 11.01 -9.6875 10.5 C-8 9 -8 9 -5 9 C-4.34 7.02 -3.68 5.04 -3 3 C-2.01 3 -1.02 3 0 3 C0 2.01 0 1.02 0 0 Z " fill="#5EF6FC" transform="translate(182,101)"/>
<path d="M0 0 C3.55611617 2.78763344 6.80100004 5.81273949 10 9 C10.58910156 9.52464844 11.17820313 10.04929687 11.78515625 10.58984375 C13 12 13 12 13 15 C12.40050537 15.04374756 11.80101074 15.08749512 11.18334961 15.13256836 C-0.5380866 15.67626742 -0.5380866 15.67626742 -10.953125 20.203125 C-12.60873572 22.41524352 -13.91954898 24.46120622 -15 27 C-19.03854121 21.9079263 -19.10306393 18.28689984 -19 12 C-20.32 12 -21.64 12 -23 12 C-24.32 12 -25.64 12 -27 12 C-27 12.99 -27 13.98 -27 15 C-28.85625 14.9690625 -28.85625 14.9690625 -30.75 14.9375 C-33.6640825 14.93233319 -36.20953327 15.06984442 -39 16 C-36.43725502 13.01013086 -33.53330228 11.66273049 -30 10 C-28.96875 9.46375 -27.9375 8.9275 -26.875 8.375 C-22.23076923 6.15384615 -22.23076923 6.15384615 -20 6 C-18.375 7.4375 -18.375 7.4375 -17 9 C-16.34 9 -15.68 9 -15 9 C-15 5.04 -15 1.08 -15 -3 C-8.68919749 -4.2621605 -5.52109216 -3.08766281 0 0 Z M-35 15 C-34.01 15.495 -34.01 15.495 -33 16 C-33.99 16.495 -33.99 16.495 -35 17 C-35 16.34 -35 15.68 -35 15 Z " fill="#0024A4" transform="translate(179,44)"/>
<path d="M0 0 C0.66 0 1.32 0 2 0 C1.86024595 3.54193375 1.71211066 7.08346999 1.5625 10.625 C1.52318359 11.62402344 1.48386719 12.62304688 1.44335938 13.65234375 C1.23427386 18.50956104 0.97041445 23.22132044 0 28 C3.3 28.66 6.6 29.32 10 30 C8.125 34.875 8.125 34.875 7 36 C5.29227642 36.08713831 3.58101351 36.10700007 1.87109375 36.09765625 C0.31938477 36.09282227 0.31938477 36.09282227 -1.26367188 36.08789062 C-2.35228516 36.07951172 -3.44089844 36.07113281 -4.5625 36.0625 C-6.2012207 36.05573242 -6.2012207 36.05573242 -7.87304688 36.04882812 C-10.58208495 36.03699826 -13.29101599 36.02051543 -16 36 C-15.67128906 35.1028125 -15.34257813 34.205625 -15.00390625 33.28125 C-14.11463851 30.37469396 -13.80255305 28.4796286 -13.9375 25.5 C-14.02949266 21.87548919 -13.73172108 18.56714026 -13 15 C-12.34 15 -11.68 15 -11 15 C-10.67 14.01 -10.34 13.02 -10 12 C-9.01 12 -8.02 12 -7 12 C-6.938125 11.443125 -6.87625 10.88625 -6.8125 10.3125 C-5.67221022 7.06705986 -3.43703832 5.37611236 -1 3 C-0.67 2.01 -0.34 1.02 0 0 Z " fill="#32ADF9" transform="translate(143,92)"/>
<path d="M0 0 C0.495 1.485 0.495 1.485 1 3 C0.34 3 -0.32 3 -1 3 C-1 3.66 -1 4.32 -1 5 C-0.34 5 0.32 5 1 5 C1 5.66 1 6.32 1 7 C-0.390625 8.3671875 -0.390625 8.3671875 -2.25 9.875 C-4.3786617 11.62323822 -6.25496609 13.27746309 -8.125 15.3125 C-10.37571048 17.33813943 -12.02921862 17.66991318 -15 18 C-15 20.31 -15 22.62 -15 25 C-19.8715372 27.29248809 -23.74024015 27.78600343 -28.875 26 C-29.57625 25.67 -30.2775 25.34 -31 25 C-31 24.01 -31 23.02 -31 22 C-32.98 21.67 -34.96 21.34 -37 21 C-37.33 18.69 -37.66 16.38 -38 14 C-34.2397015 14.58107632 -31.46964968 15.65199496 -28.1875 17.5625 C-27.39730469 18.01753906 -26.60710937 18.47257812 -25.79296875 18.94140625 C-25.20128906 19.29074219 -24.60960938 19.64007813 -24 20 C-23.814375 19.34 -23.62875 18.68 -23.4375 18 C-20.07321918 10.9788922 -8.67044736 -2.89014912 0 0 Z " fill="#021CA0" transform="translate(143,41)"/>
<path d="M0 0 C4.53494403 6.07469592 5.25176691 13.39962988 4.30004883 20.74145508 C3.64004883 21.40145508 2.98004883 22.06145508 2.30004883 22.74145508 C1.31004883 22.74145508 0.32004883 22.74145508 -0.69995117 22.74145508 C-2.06719736 21.102494 -3.39482566 19.43030171 -4.69995117 17.74145508 C-6.47285456 16.1746418 -8.28764282 14.65418365 -10.13745117 13.17895508 C-11.06428711 12.43516602 -11.99112305 11.69137695 -12.94604492 10.92504883 C-14.79622448 9.45802702 -16.66392291 8.01285641 -18.54760742 6.58911133 C-19.25788086 5.97938477 -19.9681543 5.3696582 -20.69995117 4.74145508 C-20.69995117 4.08145508 -20.69995117 3.42145508 -20.69995117 2.74145508 C-21.35995117 2.41145508 -22.01995117 2.08145508 -22.69995117 1.74145508 C-19.26655999 1.15161265 -15.8281594 0.5993511 -12.38745117 0.05395508 C-11.41098633 -0.11426758 -10.43452148 -0.28249023 -9.4284668 -0.45581055 C-8.02177734 -0.67333984 -8.02177734 -0.67333984 -6.58666992 -0.89526367 C-5.29055786 -1.10735474 -5.29055786 -1.10735474 -3.96826172 -1.32373047 C-1.69995117 -1.25854492 -1.69995117 -1.25854492 0 0 Z " fill="#2E81E9" transform="translate(193.699951171875,59.258544921875)"/>
<path d="M0 0 C-4.46154709 7.48388544 -9.44126306 15.55575189 -15.7109375 21.66796875 C-17.26882375 23.08565002 -17.26882375 23.08565002 -18 26 C-20.0625 26.6875 -20.0625 26.6875 -22 27 C-25 22.25 -25 22.25 -25 20 C-25.66 20 -26.32 20 -27 20 C-26.3148054 12.65557042 -22.32279372 8.7896942 -17 4 C-11.44951546 0.330877 -6.55426389 -0.47667374 0 0 Z " fill="#011B96" transform="translate(96,54)"/>
<path d="M0 0 C4.29 0 8.58 0 13 0 C13 0.66 13 1.32 13 2 C13.66 2 14.32 2 15 2 C17.47346304 4.47346304 17.98313144 5.70761168 18.1875 9.25 C18.0946875 10.61125 18.0946875 10.61125 18 12 C15.69 12.66 13.38 13.32 11 14 C11 14.66 11 15.32 11 16 C10.01 16 9.02 16 8 16 C8 16.99 8 17.98 8 19 C7.01 19 6.02 19 5 19 C5 19.66 5 20.32 5 21 C1.7 21 -1.6 21 -5 21 C-5 16.0763803 -4.79457766 14.76193147 -2 11 C-1.34 11 -0.68 11 0 11 C0.33 9.68 0.66 8.36 1 7 C1.66 7 2.32 7 3 7 C3 6.01 3 5.02 3 4 C2.01 3.67 1.02 3.34 0 3 C0 2.01 0 1.02 0 0 Z " fill="#0730BC" transform="translate(56,72)"/>
<path d="M0 0 C4.71403788 0.47939368 8.66579301 0.96834048 13 3 C12.34 4.65 11.68 6.3 11 8 C10.34 8 9.68 8 9 8 C8.71125 8.5775 8.4225 9.155 8.125 9.75 C7.75375 10.4925 7.3825 11.235 7 12 C6.690625 12.721875 6.38125 13.44375 6.0625 14.1875 C5 16 5 16 2 17 C1.67 17.66 1.34 18.32 1 19 C0.34 19 -0.32 19 -1 19 C-1 20.65 -1 22.3 -1 24 C-1.66 23.67 -2.32 23.34 -3 23 C-3 21.68 -3 20.36 -3 19 C-4.32 19 -5.64 19 -7 19 C-7 18.34 -7 17.68 -7 17 C-8.65 16.67 -10.3 16.34 -12 16 C-12.52493438 10.75065617 -12.52493438 10.75065617 -12 8 C-7.4 4 -7.4 4 -4 4 C-4 3.34 -4 2.68 -4 2 C-2.68 2 -1.36 2 0 2 C0 1.34 0 0.68 0 0 Z " fill="#3395FC" transform="translate(131,88)"/>
<path d="M0 0 C0.33 0.66 0.66 1.32 1 2 C1.66 2 2.32 2 3 2 C3.18175781 3.10408203 3.18175781 3.10408203 3.3671875 4.23046875 C3.53476563 5.20628906 3.70234375 6.18210937 3.875 7.1875 C4.11863281 8.63189453 4.11863281 8.63189453 4.3671875 10.10546875 C4.98039517 12.91032604 5.85666343 15.37224747 7 18 C4.85851547 20.89543915 2.70430569 23.61065361 0 26 C-3.25 26.0625 -3.25 26.0625 -6 25 C-6.99 24.67 -7.98 24.34 -9 24 C-9.09377123 16.58165418 -9.17402193 9.33763707 -8 2 C-7.67 2.99 -7.34 3.98 -7 5 C-6.34 5 -5.68 5 -5 5 C-5 4.01 -5 3.02 -5 2 C-3.35 1.34 -1.7 0.68 0 0 Z " fill="#1753D2" transform="translate(157,54)"/>
<path d="M0 0 C11.9 0 11.9 0 15 2 C15.9375 4 15.9375 4 16 6 C15.34 6.66 14.68 7.32 14 8 C13.3574765 10.06874034 13.3574765 10.06874034 13 12 C12.01 12 11.02 12 10 12 C9.690625 12.94875 9.38125 13.8975 9.0625 14.875 C8 18 8 18 7 20 C6.34 20 5.68 20 5 20 C5 22.64 5 25.28 5 28 C4.34 28 3.68 28 3 28 C3 27.34 3 26.68 3 26 C1.68 25.67 0.36 25.34 -1 25 C-0.67 16.75 -0.34 8.5 0 0 Z " fill="#03319E" transform="translate(83,84)"/>
<path d="M0 0 C2.97 0.495 2.97 0.495 6 1 C6.66 2.98 7.32 4.96 8 7 C6.02 7.99 6.02 7.99 4 9 C4 12.3 4 15.6 4 19 C6.97574276 19.70266613 6.97574276 19.70266613 10 20 C10 19.01 10 18.02 10 17 C12 14.8125 12 14.8125 14 13 C14.33 13.99 14.66 14.98 15 16 C15.66 16 16.32 16 17 16 C17 15.01 17 14.02 17 13 C20 12 20 12 23 13 C22 15 21 17 20 19 C20.639375 19.103125 21.27875 19.20625 21.9375 19.3125 C22.618125 19.539375 23.29875 19.76625 24 20 C24.33 20.99 24.66 21.98 25 23 C22.36 22.67 19.72 22.34 17 22 C17 21.34 17 20.68 17 20 C16.01 20 15.02 20 14 20 C14.66 20.99 15.32 21.98 16 23 C16.66 23.103125 17.32 23.20625 18 23.3125 C18.66 23.539375 19.32 23.76625 20 24 C20.70381157 25.98723268 21.3711811 27.98777953 22 30 C22.99 30.33 23.98 30.66 25 31 C19.30618185 32.74471125 15.92506543 30.54762071 10.88671875 27.8828125 C5.3216354 24.2530829 2.01666225 19.28831955 0 13 C-0.1953125 9.66796875 -0.1953125 9.66796875 -0.125 6.1875 C-0.10695312 5.02605469 -0.08890625 3.86460938 -0.0703125 2.66796875 C-0.04710937 1.78753906 -0.02390625 0.90710938 0 0 Z " fill="#03208B" transform="translate(33,95)"/>
<path d="M0 0 C0.66 0.33 1.32 0.66 2 1 C1.8604947 4.39612414 1.71227678 7.79181458 1.5625 11.1875 C1.50352539 12.62706055 1.50352539 12.62706055 1.44335938 14.09570312 C1.40146484 15.02705078 1.35957031 15.95839844 1.31640625 16.91796875 C1.26141968 18.19837036 1.26141968 18.19837036 1.20532227 19.50463867 C0.99468906 22.06454594 0.55158464 24.49333243 0 27 C1.32 27.33 2.64 27.66 4 28 C4 28.66 4 29.32 4 30 C4.66 30 5.32 30 6 30 C6 28.35 6 26.7 6 25 C6.33 25 6.66 25 7 25 C7.66 26.98 8.32 28.96 9 31 C10.32 30.67 11.64 30.34 13 30 C13 29.01 13 28.02 13 27 C13.66 27 14.32 27 15 27 C15 26.34 15 25.68 15 25 C16.65 24.34 18.3 23.68 20 23 C19.8125 25.8125 19.8125 25.8125 19 29 C16.625 30.625 16.625 30.625 14 32 C13.46375 32.721875 12.9275 33.44375 12.375 34.1875 C11.92125 34.785625 11.4675 35.38375 11 36 C10.01 36 9.02 36 8 36 C7.67 36.66 7.34 37.32 7 38 C4.3333581 39.33332095 2.83319697 38.67102033 0 38 C-0.33 36.68 -0.66 35.36 -1 34 C-1.33 35.98 -1.66 37.96 -2 40 C-2.99 40 -3.98 40 -5 40 C-5.33 40.99 -5.66 41.98 -6 43 C-6.66 42.67 -7.32 42.34 -8 42 C-7.505 41.505 -7.505 41.505 -7 41 C-6.91348389 39.58429877 -6.89295096 38.164405 -6.90234375 36.74609375 C-6.90556641 35.89208984 -6.90878906 35.03808594 -6.91210938 34.15820312 C-6.92048828 33.26037109 -6.92886719 32.36253906 -6.9375 31.4375 C-6.94426758 30.08495117 -6.94426758 30.08495117 -6.95117188 28.70507812 C-6.96299775 26.46998686 -6.9794778 24.23502563 -7 22 C-6.01 22 -5.02 22 -4 22 C-4 22.66 -4 23.32 -4 24 C-3.34 24 -2.68 24 -2 24 C-1.93941406 22.77023438 -1.87882812 21.54046875 -1.81640625 20.2734375 C-1.73194995 18.64061573 -1.64730453 17.00780373 -1.5625 15.375 C-1.52318359 14.56675781 -1.48386719 13.75851563 -1.44335938 12.92578125 C-1.21203918 8.54849135 -0.83079083 4.31452719 0 0 Z " fill="#0743B3" transform="translate(82,82)"/>
<path d="M0 0 C0 0.66 0 1.32 0 2 C-2.31 3.32 -4.62 4.64 -7 6 C-5.68 6.33 -4.36 6.66 -3 7 C-3.33 8.98 -3.66 10.96 -4 13 C-6.97 12.67 -9.94 12.34 -13 12 C-12.67 17.28 -12.34 22.56 -12 28 C-11.34 28 -10.68 28 -10 28 C-9.67 30.97 -9.34 33.94 -9 37 C-15.625 37.125 -15.625 37.125 -19 36 C-18.8594438 32.66642262 -18.71158198 29.33320611 -18.5625 26 C-18.52318359 25.06542969 -18.48386719 24.13085938 -18.44335938 23.16796875 C-18.19643614 17.73565748 -17.93465191 12.36195043 -17 7 C-14.9375 5.5 -14.9375 5.5 -13 5 C-13 5.66 -13 6.32 -13 7 C-12.071875 6.2575 -12.071875 6.2575 -11.125 5.5 C-9 4 -9 4 -7 4 C-7 3.34 -7 2.68 -7 2 C-2.25 0 -2.25 0 0 0 Z " fill="#57E1FD" transform="translate(162,84)"/>
<path d="M0 0 C0.66 1.32 1.32 2.64 2 4 C2.66 4 3.32 4 4 4 C4.66 3.01 5.32 2.02 6 1 C6 4.63 6 8.26 6 12 C5.01 12.495 5.01 12.495 4 13 C4.12375 14.36125 4.12375 14.36125 4.25 15.75 C4 19 4 19 2.3125 21.1875 C-3.14600076 25.46578438 -6.13145915 26.34924784 -13 26 C-13 25.67 -13 25.34 -13 25 C-9.04 24.505 -9.04 24.505 -5 24 C-5 23.34 -5 22.68 -5 22 C-4.34 21.54625 -3.68 21.0925 -3 20.625 C-2.34 20.08875 -1.68 19.5525 -1 19 C-1 17.68 -1 16.36 -1 15 C-2.299375 15.061875 -2.299375 15.061875 -3.625 15.125 C-7.12358468 14.99542279 -9.74551597 14.23980344 -13 13 C-13 12.01 -13 11.02 -13 10 C-12.34 10 -11.68 10 -11 10 C-10.71125 9.401875 -10.4225 8.80375 -10.125 8.1875 C-9 6 -9 6 -7 3 C-6.34 3 -5.68 3 -5 3 C-5 2.34 -5 1.68 -5 1 C-3 0 -3 0 0 0 Z " fill="#B9FCF9" transform="translate(229,103)"/>
<path d="M0 0 C0.87078186 -0.00412399 1.74156372 -0.00824799 2.63873291 -0.01249695 C4.06724327 0.00368179 4.06724327 0.00368179 5.52461243 0.02018738 C7.0321962 0.01953026 7.0321962 0.01953026 8.57023621 0.01885986 C11.89807952 0.0209528 15.22542139 0.04430805 18.55317688 0.0677948 C20.85817184 0.07338895 23.16317037 0.0776599 25.46817017 0.08065796 C31.53949301 0.09212094 37.61060109 0.12160081 43.68183899 0.1547699 C49.87525019 0.18543937 56.06869603 0.19915662 62.26216125 0.21427917 C74.41785466 0.24646896 86.57338854 0.297683 98.72895813 0.36076355 C95.81705342 2.01664446 93.71647184 2.61455039 90.37562561 2.63923645 C89.08001205 2.65598167 89.08001205 2.65598167 87.75822449 2.67306519 C86.34913315 2.67630547 86.34913315 2.67630547 84.91157532 2.67961121 C83.41840286 2.69467964 83.41840286 2.69467964 81.89506531 2.71005249 C78.60532711 2.740939 75.31567051 2.75793499 72.02583313 2.77482605 C69.74467769 2.79353328 67.46352919 2.81310635 65.18238831 2.83351135 C59.17862543 2.88488547 53.1748401 2.92448304 47.17097473 2.96165466 C41.04441246 3.00166115 34.917944 3.0527688 28.79145813 3.10295105 C16.77069064 3.1997729 4.74987025 3.28415773 -7.27104187 3.36076355 C-4.944706 0.57334805 -3.6088847 -0.01318715 0 0 Z " fill="#E3FCFE" transform="translate(116.27104187011719,128.6392364501953)"/>
<path d="M0 0 C-0.66 0.66 -1.32 1.32 -2 2 C-1.34 2.33 -0.68 2.66 0 3 C0 3.99 0 4.98 0 6 C-0.99 6.495 -0.99 6.495 -2 7 C-2.33 7.99 -2.66 8.98 -3 10 C-3.66 10 -4.32 10 -5 10 C-5.0825 10.5775 -5.165 11.155 -5.25 11.75 C-6.2379616 14.71388479 -7.53822058 16.10091302 -10 18 C-12.6438545 17.9198832 -13.71733073 17.23219261 -15.75 15.5625 C-17 14 -17 14 -17 12 C-17.99 11.67 -18.98 11.34 -20 11 C-18.55767936 7.42521604 -16.83879097 5.88918552 -13.625 3.8125 C-12.85414062 3.30332031 -12.08328125 2.79414062 -11.2890625 2.26953125 C-7.47546193 0.15447974 -4.32097208 -0.120027 0 0 Z " fill="#0A136B" transform="translate(59,73)"/>
<path d="M0 0 C0 0.66 0 1.32 0 2 C-0.66 2 -1.32 2 -2 2 C-1.51515724 6.64586892 -1.51515724 6.64586892 0 11 C-0.66 11.66 -1.32 12.32 -2 13 C-1.01 14.65 -0.02 16.3 1 18 C-4.61 18 -10.22 18 -16 18 C-17.26436876 14.8390781 -18.28100082 12.23549631 -19 9 C-18.01 9.33 -17.02 9.66 -16 10 C-16 10.66 -16 11.32 -16 12 C-15.34 12 -14.68 12 -14 12 C-14 11.34 -14 10.68 -14 10 C-8.375 9.75 -8.375 9.75 -5 12 C-5.33 10.35 -5.66 8.7 -6 7 C-7.98 7.33 -9.96 7.66 -12 8 C-11.01 7.34 -10.02 6.68 -9 6 C-9.66 5.67 -10.32 5.34 -11 5 C-8.9990393 -1.00288209 -5.79174405 -1.44793601 0 0 Z " fill="#032D96" transform="translate(72,110)"/>
<path d="M0 0 C0.99 0 1.98 0 3 0 C3.226875 0.61875 3.45375 1.2375 3.6875 1.875 C5.38454792 4.62260139 7.02514071 4.93210179 10 6 C10.33 6.66 10.66 7.32 11 8 C11.99 8.33 12.98 8.66 14 9 C14.33 10.98 14.66 12.96 15 15 C15.66 15 16.32 15 17 15 C17 14.01 17 13.02 17 12 C17.66 12 18.32 12 19 12 C19.33 11.34 19.66 10.68 20 10 C23 16.625 23 16.625 23 20 C19.4942379 20.10016463 16.41762195 19.76896494 13 19 C11.700625 18.814375 11.700625 18.814375 10.375 18.625 C7.60556566 17.89620149 6.57092212 17.39772324 5 15 C4.8125 11.8125 4.8125 11.8125 5 9 C4.34 9 3.68 9 3 9 C2.01 6.03 1.02 3.06 0 0 Z " fill="#0E45B3" transform="translate(107,66)"/>
<path d="M0 0 C0.99 0 1.98 0 3 0 C3.680625 1.175625 3.680625 1.175625 4.375 2.375 C6.30939056 5.49978476 7.65378745 5.76718485 11 7 C11.33 7.99 11.66 8.98 12 10 C12.99 10.33 13.98 10.66 15 11 C12.83735988 14.98381075 10.28788824 17.88983545 7 21 C4.31780178 15.63560356 3.6847405 11.98993047 4 6 C2.68 6 1.36 6 0 6 C-1.32 6 -2.64 6 -4 6 C-4 6.99 -4 7.98 -4 9 C-5.85625 8.9690625 -5.85625 8.9690625 -7.75 8.9375 C-10.6640825 8.93233319 -13.20953327 9.06984442 -16 10 C-13.43725502 7.01013086 -10.53330228 5.66273049 -7 4 C-3.25666543 2.36475932 -3.25666543 2.36475932 0 0 Z M-12 9 C-11.01 9.495 -11.01 9.495 -10 10 C-10.99 10.495 -10.99 10.495 -12 11 C-12 10.34 -12 9.68 -12 9 Z " fill="#1246BF" transform="translate(156,50)"/>
<path d="M0 0 C2.125 0.375 2.125 0.375 4 1 C4 1.66 4 2.32 4 3 C4.99 3.33 5.98 3.66 7 4 C7.6875 6.0625 7.6875 6.0625 8 8 C8.66 8 9.32 8 10 8 C9.34 12.62 8.68 17.24 8 22 C7.01 22 6.02 22 5 22 C4.67128906 21.06027344 4.67128906 21.06027344 4.3359375 20.1015625 C2.35723312 14.65033086 2.35723312 14.65033086 -2.25 11.4375 C-3.61125 11.2209375 -3.61125 11.2209375 -5 11 C-4.54917531 9.53932801 -4.08906463 8.08151968 -3.625 6.625 C-3.36976562 5.81289062 -3.11453125 5.00078125 -2.8515625 4.1640625 C-2 2 -2 2 0 0 Z " fill="#0C2ABA" transform="translate(38,84)"/>
<path d="M0 0 C1.32 0 2.64 0 4 0 C4.6875 1.8125 4.6875 1.8125 5 4 C3.6875 5.75 3.6875 5.75 2 7 C1.34 7 0.68 7 0 7 C0 7.66 0 8.32 0 9 C-5.81878326 10.66830116 -10.9512253 11.28169827 -16.98632812 11.22705078 C-17.84581055 11.22734283 -18.70529297 11.22763489 -19.59082031 11.22793579 C-22.40440306 11.2265532 -25.21771407 11.21104285 -28.03125 11.1953125 C-29.99279638 11.19157856 -31.95434464 11.18873339 -33.91589355 11.18673706 C-39.05823998 11.17913062 -44.20047197 11.15950797 -49.34277344 11.1373291 C-54.59829155 11.11680608 -59.8538283 11.10772157 -65.109375 11.09765625 C-75.40630005 11.07625912 -85.70314048 11.0421595 -96 11 C-96 10.67 -96 10.34 -96 10 C-94.8772467 9.9845388 -94.8772467 9.9845388 -93.73181152 9.96876526 C-86.5577571 9.86937446 -79.38375962 9.76670539 -72.20980072 9.66066074 C-68.52465444 9.60629474 -64.83950022 9.55304805 -61.15429688 9.50268555 C-51.43541066 9.36917404 -41.71765799 9.20457429 -32 9 C-30.15486816 8.96311066 -30.15486816 8.96311066 -28.27246094 8.92547607 C-24.92048252 8.85145053 -21.56991475 8.75638244 -18.21875 8.65234375 C-16.7581012 8.62183678 -16.7581012 8.62183678 -15.26794434 8.5907135 C-10.28511649 8.40893206 -7.1562691 8.0011411 -3 5 C-0.1875 4.8125 -0.1875 4.8125 2 5 C2 3.68 2 2.36 2 1 C1.01 0.505 1.01 0.505 0 0 Z " fill="#8EEAEB" transform="translate(224,118)"/>
<path d="M0 0 C0.33 3.3 0.66 6.6 1 10 C2.32 9.34 3.64 8.68 5 8 C5 8.99 5 9.98 5 11 C4.01 11 3.02 11 2 11 C1.34 12.98 0.68 14.96 0 17 C1.175625 15.7625 1.175625 15.7625 2.375 14.5 C5 12 5 12 7 12 C5.80023986 15.08509749 4.51795039 18.05897112 3 21 C2.62875 21.7425 2.2575 22.485 1.875 23.25 C1.58625 23.8275 1.2975 24.405 1 25 C-0.29243536 20.8803623 -1.26252625 17.33168317 -1 13 C-2.2375 13.185625 -3.475 13.37125 -4.75 13.5625 C-8.09383119 14.06407468 -9.5216367 13.86959082 -13 13 C-12.01 10.36 -11.02 7.72 -10 5 C-8.35 5 -6.7 5 -5 5 C-5 4.01 -5 3.02 -5 2 C-2 0 -2 0 0 0 Z " fill="#1258D4" transform="translate(104,91)"/>
<path d="M0 0 C0.33 0 0.66 0 1 0 C1 3.3 1 6.6 1 10 C4.67343374 10 6.68353751 9.9148862 10 9 C10.66 9 11.32 9 12 9 C15 14.75 15 14.75 15 17 C7.66236293 18.17402193 0.41834582 18.09377123 -7 18 C-7 15 -7 15 -5.6875 13.3125 C-4 12 -4 12 -1 12 C-0.67 8.04 -0.34 4.08 0 0 Z " fill="#0B56C7" transform="translate(81,110)"/>
<path d="M0 0 C0 0.66 0 1.32 0 2 C1.0725 2.12375 2.145 2.2475 3.25 2.375 C6.37863615 2.89643936 8.33480424 3.40088254 11 5 C9.859375 7.4765625 9.859375 7.4765625 8 10 C5.328125 10.5234375 5.328125 10.5234375 2.25 10.375 C1.1878125 10.33117187 0.125625 10.28734375 -0.96875 10.2421875 C-4.35893212 9.97132243 -7.65437475 9.6082955 -11 9 C-10.4375 5.625 -10.4375 5.625 -9 2 C-5.86242274 0.7113522 -3.39140533 0 0 0 Z " fill="#31CEFA" transform="translate(142,118)"/>
<path d="M0 0 C0.39421143 0.50249268 0.78842285 1.00498535 1.19458008 1.52270508 C-0.20154257 4.31495037 -2.11030266 4.96552622 -4.80541992 6.52270508 C-5.81604492 7.26520508 -6.82666992 8.00770508 -7.86791992 8.77270508 C-10.80541992 10.52270508 -10.80541992 10.52270508 -12.80541992 10.58520508 C-15.89879365 8.94185028 -18.23677749 6.9162128 -20.80541992 4.52270508 C-20.80541992 3.86270508 -20.80541992 3.20270508 -20.80541992 2.52270508 C-21.46541992 2.19270508 -22.12541992 1.86270508 -22.80541992 1.52270508 C-19.37202874 0.93286265 -15.93362815 0.3806011 -12.49291992 -0.16479492 C-11.51645508 -0.33301758 -10.53999023 -0.50124023 -9.53393555 -0.67456055 C-8.12724609 -0.89208984 -8.12724609 -0.89208984 -6.69213867 -1.11401367 C-5.39602661 -1.32610474 -5.39602661 -1.32610474 -4.07373047 -1.54248047 C-1.80541992 -1.47729492 -1.80541992 -1.47729492 0 0 Z " fill="#3D97F1" transform="translate(193.805419921875,59.477294921875)"/>
<path d="M0 0 C0.763125 0.309375 1.52625 0.61875 2.3125 0.9375 C4.18789677 1.67893593 6.08684652 2.36228217 8 3 C8 3.66 8 4.32 8 5 C8.99 5 9.98 5 11 5 C11.66 7.64 12.32 10.28 13 13 C14.32 13 15.64 13 17 13 C16.67 14.32 16.34 15.64 16 17 C16 16.34 16 15.68 16 15 C14.845 14.855625 13.69 14.71125 12.5 14.5625 C8.33333333 14.04166667 4.16666667 13.52083333 0 13 C-1.33106125 9.00681626 -1.13647721 5.16255487 -1 1 C-0.67 0.67 -0.34 0.34 0 0 Z " fill="#BEFAFB" transform="translate(216,83)"/>
<path d="M0 0 C6.70212766 1.93617021 6.70212766 1.93617021 9 5 C9 5.66 9 6.32 9 7 C9.66 7 10.32 7 11 7 C11 8.65 11 10.3 11 12 C0.62642369 14.48063781 0.62642369 14.48063781 -5 13 C-3.78184562 8.31479085 -2.30440013 4.29456388 0 0 Z " fill="#0842E4" transform="translate(177,47)"/>
<path d="M0 0 C0.66 0 1.32 0 2 0 C1.67 1.98 1.34 3.96 1 6 C1.804375 6.350625 2.60875 6.70125 3.4375 7.0625 C6 9 6 9 7 16 C0.73 16 -5.54 16 -12 16 C-12 15.67 -12 15.34 -12 15 C-9.36 15 -6.72 15 -4 15 C-4.515625 13.88625 -5.03125 12.7725 -5.5625 11.625 C-6.036875 10.42875 -6.51125 9.2325 -7 8 C-6.67 7.34 -6.34 6.68 -6 6 C-5.34 6 -4.68 6 -4 6 C-3.566875 5.071875 -3.566875 5.071875 -3.125 4.125 C-2 2 -2 2 0 0 Z " fill="#0447A8" transform="translate(100,112)"/>
<path d="M0 0 C0 0.99 0 1.98 0 3 C0.66 3 1.32 3 2 3 C2.50559908 4.43554025 3.0042749 5.8735202 3.5 7.3125 C3.7784375 8.11300781 4.056875 8.91351563 4.34375 9.73828125 C5 12 5 12 5 15 C4.34 15 3.68 15 3 15 C3 16.65 3 18.3 3 20 C2.34 19.67 1.68 19.34 1 19 C1 17.68 1 16.36 1 15 C-0.32 15 -1.64 15 -3 15 C-3 14.34 -3 13.68 -3 13 C-4.65 12.67 -6.3 12.34 -8 12 C-8.52493438 6.75065617 -8.52493438 6.75065617 -8 4 C-3.4 0 -3.4 0 0 0 Z " fill="#2A87FB" transform="translate(127,92)"/>
<path d="M0 0 C3.0721297 3.0721297 3.56746919 6.87726553 4.6875 11 C4.92533203 11.83273438 5.16316406 12.66546875 5.40820312 13.5234375 C5.62798828 14.32007812 5.84777344 15.11671875 6.07421875 15.9375 C6.27619873 16.66839844 6.47817871 17.39929688 6.6862793 18.15234375 C7 20 7 20 6 22 C4.32756598 20.71580959 2.66218553 19.42242815 1 18.125 C0.071875 17.40570313 -0.85625 16.68640625 -1.8125 15.9453125 C-2.534375 15.30335937 -3.25625 14.66140625 -4 14 C-4 13.34 -4 12.68 -4 12 C-4.99 11.67 -5.98 11.34 -7 11 C-4.84921278 7.14341602 -2.76544722 3.45680903 0 0 Z " fill="#42AAEB" transform="translate(170,62)"/>
<path d="M0 0 C7.60544641 -0.40028665 19.82429292 -0.44621608 25.9453125 4.60546875 C26.29335937 5.06566406 26.64140625 5.52585937 27 6 C23.91190305 7.76462683 22.76687864 8 19 8 C19 7.34 19 6.68 19 6 C15.99615946 6.6954344 15.99615946 6.6954344 13 8 C12.03122943 10.03243548 12.03122943 10.03243548 12 12 C11.01 12 10.02 12 9 12 C9.66 11.34 10.32 10.68 11 10 C10.67 8.68 10.34 7.36 10 6 C6.37 5.34 2.74 4.68 -1 4 C-0.67 2.68 -0.34 1.36 0 0 Z " fill="#0C3DC1" transform="translate(87,80)"/>
<path d="M0 0 C4.23569011 2.82379341 4.57624693 6.0507359 5.625 10.875 C5.74875 11.57625 5.8725 12.2775 6 13 C3.7986336 14.14144924 1.62104295 15.14982023 -0.6875 16.0625 C-2.92435966 16.79447966 -2.92435966 16.79447966 -4 18 C-5.66617115 18.04063832 -7.33388095 18.042721 -9 18 C-6.64722731 15.27573689 -4.37503669 14.1858237 -1 13 C-1 12.34 -1 11.68 -1 11 C-1.598125 11.33 -2.19625 11.66 -2.8125 12 C-5 13 -5 13 -8 13 C-8 13.66 -8 14.32 -8 15 C-11.46153846 18 -11.46153846 18 -14 18 C-14.33 17.01 -14.66 16.02 -15 15 C-14.34 15 -13.68 15 -13 15 C-13 14.34 -13 13.68 -13 13 C-11.68 12.67 -10.36 12.34 -9 12 C-9 11.01 -9 10.02 -9 9 C-6.36 9 -3.72 9 -1 9 C0.24226801 7.06256771 0.24226801 7.06256771 -0.5 5.0625 C-1 3 -1 3 0 0 Z " fill="#4EB2F5" transform="translate(163,73)"/>
<path d="M0 0 C3.7602985 0.58107632 6.53035032 1.65199496 9.8125 3.5625 C10.60269531 4.01753906 11.39289063 4.47257812 12.20703125 4.94140625 C12.79871094 5.29074219 13.39039062 5.64007813 14 6 C14.66 4.35 15.32 2.7 16 1 C18 4 18 4 17.75 6.5 C17 9 17 9 15 12 C12.36 11.67 9.72 11.34 7 11 C7 10.01 7 9.02 7 8 C4.03 7.505 4.03 7.505 1 7 C0.67 4.69 0.34 2.38 0 0 Z " fill="#03158B" transform="translate(105,55)"/>
<path d="M0 0 C11.75 2.875 11.75 2.875 14 4 C14 4.99 14 5.98 14 7 C11.69 7.66 9.38 8.32 7 9 C7 9.66 7 10.32 7 11 C6.01 11 5.02 11 4 11 C4 11.99 4 12.98 4 14 C2.68 14.33 1.36 14.66 0 15 C0 10.05 0 5.1 0 0 Z " fill="#0B39CB" transform="translate(60,77)"/>
<path d="M0 0 C5.3416679 3.20500074 10.06754553 7.13932658 14 12 C14 12.99 14 13.98 14 15 C11.525 14.505 11.525 14.505 9 14 C9.33 12.68 9.66 11.36 10 10 C9.34 10 8.68 10 8 10 C7.401875 9.21625 6.80375 8.4325 6.1875 7.625 C3.87559356 4.85071227 2.39491889 4.03733633 -1 3 C-1.0825 3.66 -1.165 4.32 -1.25 5 C-2.24759791 8.99039163 -4.07166683 12.38549643 -6 16 C-4.68 16.33 -3.36 16.66 -2 17 C-3.65 17 -5.3 17 -7 17 C-8.32229189 14.35541621 -8.09677194 12.32238699 -8.0625 9.375 C-8.05347656 8.37210938 -8.04445312 7.36921875 -8.03515625 6.3359375 C-8.02355469 5.56507812 -8.01195312 4.79421875 -8 4 C-4.91190305 2.23537317 -3.76687864 2 0 2 C0 1.34 0 0.68 0 0 Z " fill="#012CB9" transform="translate(178,44)"/>
<path d="M0 0 C2 3 2 3 1.625 5.1875 C1.41875 5.785625 1.2125 6.38375 1 7 C1.66 7.33 2.32 7.66 3 8 C-1.1795645 10.78637633 -3.14668677 9.79562512 -8 9 C-8 9.99 -8 10.98 -8 12 C-9.32 12.33 -10.64 12.66 -12 13 C-12 13.66 -12 14.32 -12 15 C-14.5 16.625 -14.5 16.625 -17 18 C-17.625 14.625 -17.625 14.625 -18 11 C-14.93200364 7.93200364 -11.62939137 7.1435454 -7.4375 6.1875 C-3.51541054 4.83259637 -2.24545972 3.41309877 0 0 Z " fill="#3186F9" transform="translate(162,73)"/>
<path d="M0 0 C0 0.99 0 1.98 0 3 C1.98 3 3.96 3 6 3 C4.35 4.98 2.7 6.96 1 9 C1.99 9.66 2.98 10.32 4 11 C3.01 11.495 3.01 11.495 2 12 C2.33 12.66 2.66 13.32 3 14 C-0.23549631 13.28100082 -2.8390781 12.26436876 -6 11 C-6.33 7.37 -6.66 3.74 -7 0 C-3.86650268 -1.04449911 -3.01031744 -0.93423645 0 0 Z " fill="#092597" transform="translate(43,103)"/>
<path d="M0 0 C0.66 0.33 1.32 0.66 2 1 C3.27536232 6.44927536 3.27536232 6.44927536 2 9 C0.68 9 -0.64 9 -2 9 C-2 9.66 -2 10.32 -2 11 C-7.29411765 15 -7.29411765 15 -11 15 C-11.33 16.32 -11.66 17.64 -12 19 C-14 17 -14 17 -14.625 14.6875 C-14 12 -14 12 -12.2109375 10.5625 C-10.17446017 9.2959982 -8.12340875 8.11384165 -6 7 C-6.66 6.01 -7.32 5.02 -8 4 C-5.03 4.33 -2.06 4.66 1 5 C0.67 3.35 0.34 1.7 0 0 Z " fill="#1862D3" transform="translate(129,81)"/>
<path d="M0 0 C0.66 0 1.32 0 2 0 C2 1.32 2 2.64 2 4 C2.66 4 3.32 4 4 4 C5.17683626 7.67761331 5.03578346 11.16669708 5 15 C6.03640625 14.96519531 7.0728125 14.93039063 8.140625 14.89453125 C9.51040042 14.86638518 10.88019341 14.83908589 12.25 14.8125 C12.93191406 14.78736328 13.61382812 14.76222656 14.31640625 14.73632812 C18.61520038 14.67372433 20.81854291 15.11312227 24 18 C26.64934822 18.71433121 26.64934822 18.71433121 29 19 C29.33 20.65 29.66 22.3 30 24 C29.34 24 28.68 24 28 24 C28 23.34 28 22.68 28 22 C27.236875 21.87625 26.47375 21.7525 25.6875 21.625 C23 21 23 21 20 19 C18.07552109 18.54861089 18.07552109 18.54861089 15.98828125 18.3671875 C15.30548096 18.29097168 14.62268066 18.21475586 13.91918945 18.13623047 C13.05898193 18.05002441 12.19877441 17.96381836 11.3125 17.875 C8.569375 17.58625 5.82625 17.2975 3 17 C2.01 11.39 1.02 5.78 0 0 Z " fill="#DDF9FC" transform="translate(196,64)"/>
<path d="M0 0 C4.29 0 8.58 0 13 0 C13 0.66 13 1.32 13 2 C13.66 2 14.32 2 15 2 C17.29648649 4.5614657 18 5.47967572 18 9 C5.33029613 5.92482916 5.33029613 5.92482916 0 4 C0 2.66666667 0 1.33333333 0 0 Z " fill="#0224B9" transform="translate(56,72)"/>
<path d="M0 0 C1.2065625 0.0309375 1.2065625 0.0309375 2.4375 0.0625 C2.4375 0.7225 2.4375 1.3825 2.4375 2.0625 C1.4475 2.5575 1.4475 2.5575 0.4375 3.0625 C0.1075 4.0525 -0.2225 5.0425 -0.5625 6.0625 C-1.2225 6.0625 -1.8825 6.0625 -2.5625 6.0625 C-2.645 6.64 -2.7275 7.2175 -2.8125 7.8125 C-3.8004616 10.77638479 -5.10072058 12.16341302 -7.5625 14.0625 C-10.27714802 13.98023794 -11.29415881 13.30209034 -13.3125 11.5 C-13.725 11.025625 -14.1375 10.55125 -14.5625 10.0625 C-14.2325 9.4025 -13.9025 8.7425 -13.5625 8.0625 C-11.5825 8.5575 -11.5825 8.5575 -9.5625 9.0625 C-9.8925 7.0825 -10.2225 5.1025 -10.5625 3.0625 C-9.9025 2.7325 -9.2425 2.4025 -8.5625 2.0625 C-8.5625 3.7125 -8.5625 5.3625 -8.5625 7.0625 C-7.9025 7.0625 -7.2425 7.0625 -6.5625 7.0625 C-6.5625 5.4125 -6.5625 3.7625 -6.5625 2.0625 C-5.5725 1.7325 -4.5825 1.4025 -3.5625 1.0625 C-2.5625 0.0625 -2.5625 0.0625 0 0 Z " fill="#021682" transform="translate(56.5625,76.9375)"/>
<path d="M0 0 C2 0 2 0 4.375 2.1875 C9.33333333 7.5 9.33333333 7.5 11 10 C10.81740836 13.10405796 9.77223991 14.34164013 8 17 C6.68 16.67 5.36 16.34 4 16 C2.68 10.72 1.36 5.44 0 0 Z " fill="#79E2FE" transform="translate(171,62)"/>
<path d="M0 0 C1.2077558 3.62326739 0.54311128 4.64146369 -1 8 C1.31 8 3.62 8 6 8 C6 8.99 6 9.98 6 11 C5.34 11 4.68 11 4 11 C4 11.66 4 12.32 4 13 C3.34 13 2.68 13 2 13 C2 13.99 2 14.98 2 16 C0.35 16.66 -1.3 17.32 -3 18 C-3.66 14.7 -4.32 11.4 -5 8 C-4.34 8 -3.68 8 -3 8 C-2.690625 7.05125 -2.38125 6.1025 -2.0625 5.125 C-1 2 -1 2 0 0 Z " fill="#104DBC" transform="translate(93,96)"/>
<path d="M0 0 C0.99 0 1.98 0 3 0 C3.226875 0.61875 3.45375 1.2375 3.6875 1.875 C5.38454792 4.62260139 7.02514071 4.93210179 10 6 C10.33 6.66 10.66 7.32 11 8 C11.99 8.33 12.98 8.66 14 9 C13.125 12.875 13.125 12.875 12 14 C9.66702567 14.04092937 7.33294775 14.04241723 5 14 C5 12.35 5 10.7 5 9 C4.34 9 3.68 9 3 9 C2.01 6.03 1.02 3.06 0 0 Z " fill="#1042BF" transform="translate(107,66)"/>
<path d="M0 0 C0.33 0 0.66 0 1 0 C1 1.65 1 3.3 1 5 C1.66 5 2.32 5 3 5 C3.33 7.97 3.66 10.94 4 14 C-2.75 14.125 -2.75 14.125 -5 13 C-4.67 10.36 -4.34 7.72 -4 5 C-3.01 5 -2.02 5 -1 5 C-0.67 3.35 -0.34 1.7 0 0 Z " fill="#55EDFE" transform="translate(149,107)"/>
<path d="M0 0 C-0.50789063 0.40089844 -1.01578125 0.80179688 -1.5390625 1.21484375 C-6.81504241 5.57197322 -10.49189104 10.13986344 -14 16 C-17.18741239 14.76076086 -20.26436318 13.42490008 -23.3125 11.875 C-24.35857422 11.34519531 -24.35857422 11.34519531 -25.42578125 10.8046875 C-25.94527344 10.53914063 -26.46476562 10.27359375 -27 10 C-26.34 9.67 -25.68 9.34 -25 9 C-25 8.34 -25 7.68 -25 7 C-22 7 -22 7 -20.3125 8.375 C-19 10 -19 10 -19 12 C-17.68 12.33 -16.36 12.66 -15 13 C-14.773125 12.484375 -14.54625 11.96875 -14.3125 11.4375 C-6.91304348 -2.30434783 -6.91304348 -2.30434783 0 0 Z " fill="#D6DDF6" transform="translate(133,45)"/>
<path d="M0 0 C4.02992782 0.55312735 8.02022924 1.1558062 12 2 C12 2.66 12 3.32 12 4 C12.66 4 13.32 4 14 4 C14 6.31 14 8.62 14 11 C12.68 11 11.36 11 10 11 C9.67 9.68 9.34 8.36 9 7 C7.68 7.33 6.36 7.66 5 8 C4.54625 7.05125 4.0925 6.1025 3.625 5.125 C2.19761746 1.99686321 2.19761746 1.99686321 0 0 Z " fill="#A4F3FA" transform="translate(220,96)"/>
<path d="M0 0 C0.66 0 1.32 0 2 0 C2.33 1.98 2.66 3.96 3 6 C3.61875 6.04125 4.2375 6.0825 4.875 6.125 C5.57625 6.41375 6.2775 6.7025 7 7 C8.25 10.0625 8.25 10.0625 9 13 C5.7 13 2.4 13 -1 13 C-1.33 11.35 -1.66 9.7 -2 8 C-1.01 8 -0.02 8 1 8 C1 7.34 1 6.68 1 6 C0.34 6 -0.32 6 -1 6 C-0.67 4.02 -0.34 2.04 0 0 Z " fill="#022990" transform="translate(105,70)"/>
<path d="M0 0 C2.64 0.33 5.28 0.66 8 1 C8.05416188 2.60379341 8.09286638 4.20811406 8.125 5.8125 C8.14820313 6.70582031 8.17140625 7.59914063 8.1953125 8.51953125 C8 11 8 11 6 14 C6 13.34 6 12.68 6 12 C5.01 12 4.02 12 3 12 C2.20046862 8.71303767 1.90341064 7.28976808 3 4 C1.35 4 -0.3 4 -2 4 C-2 3.34 -2 2.68 -2 2 C-1.34 2 -0.68 2 0 2 C0 1.34 0 0.68 0 0 Z " fill="#8BF6FB" transform="translate(208,81)"/>
<path d="M0 0 C0.556875 0.28875 1.11375 0.5775 1.6875 0.875 C4.08817805 2.04289743 6.51332896 3.02959179 9 4 C12.08410406 5.2035528 15.06025533 6.47568795 18 8 C18 8.66 18 9.32 18 10 C18.99 10.33 19.98 10.66 21 11 C15.26935177 12.78357192 11.82778399 10.43030598 6.76171875 7.76953125 C3.26413266 5.52850367 1.7654716 3.70749036 0 0 Z " fill="#0B1F77" transform="translate(37,115)"/>
<path d="M0 0 C0.33 0 0.66 0 1 0 C1 2.31 1 4.62 1 7 C3.97 7 6.94 7 10 7 C10 7.66 10 8.32 10 9 C9.34 9 8.68 9 8 9 C8 9.66 8 10.32 8 11 C6 12.625 6 12.625 4 14 C4 13.01 4 12.02 4 11 C1.55519921 11.18828772 1.55519921 11.18828772 -1 12 C-2.36020151 13.96758273 -2.36020151 13.96758273 -3 16 C-3.33 16 -3.66 16 -4 16 C-3.67 13.69 -3.34 11.38 -3 9 C-2.34 9 -1.68 9 -1 9 C-0.67 6.03 -0.34 3.06 0 0 Z " fill="#72D3F5" transform="translate(198,74)"/>
<path d="M0 0 C4.29 0.33 8.58 0.66 13 1 C12 3 12 3 9.48828125 3.96484375 C8.44027344 4.28582031 7.39226563 4.60679688 6.3125 4.9375 C1.95732532 6.32347335 -2.01025752 7.7834764 -6 10 C-5.67 8.35 -5.34 6.7 -5 5 C-3.68 4.67 -2.36 4.34 -1 4 C-0.67 2.68 -0.34 1.36 0 0 Z " fill="#EAEDF9" transform="translate(48,69)"/>
<path d="M0 0 C0 1.65 0 3.3 0 5 C1.27875 4.731875 2.5575 4.46375 3.875 4.1875 C4.59429687 4.03667969 5.31359375 3.88585937 6.0546875 3.73046875 C8.37046549 3.07691162 8.37046549 3.07691162 10 0 C10.66 0 11.32 0 12 0 C12 0.66 12 1.32 12 2 C12.99 1.67 13.98 1.34 15 1 C15.33 2.32 15.66 3.64 16 5 C8.66236293 6.17402193 1.41834582 6.09377123 -6 6 C-6 3 -6 3 -4.6875 1.3125 C-3 0 -3 0 0 0 Z " fill="#0851BA" transform="translate(80,122)"/>
<path d="M0 0 C0.99 0.33 1.98 0.66 3 1 C3 1.66 3 2.32 3 3 C3.99 3.33 4.98 3.66 6 4 C6.33 5.65 6.66 7.3 7 9 C6.01 9.33 5.02 9.66 4 10 C4 10.66 4 11.32 4 12 C2.68 11.67 1.36 11.34 0 11 C-0.144375 10.21625 -0.28875 9.4325 -0.4375 8.625 C-0.87798925 6.03578982 -0.87798925 6.03578982 -2 4 C-1.0625 1.875 -1.0625 1.875 0 0 Z " fill="#0424B2" transform="translate(39,84)"/>
<path d="M0 0 C0.66 0 1.32 0 2 0 C2 1.98 2 3.96 2 6 C1.01 6.495 1.01 6.495 0 7 C0.12375 8.36125 0.12375 8.36125 0.25 9.75 C0 13 0 13 -1.6875 15.1875 C-7.14600076 19.46578438 -10.13145915 20.34924784 -17 20 C-17 19.67 -17 19.34 -17 19 C-13.04 18.505 -13.04 18.505 -9 18 C-9 17.34 -9 16.68 -9 16 C-5.53846154 13 -5.53846154 13 -3 13 C-3.33 11.02 -3.66 9.04 -4 7 C-3.01 6.34 -2.02 5.68 -1 5 C-0.27034634 2.43717258 -0.27034634 2.43717258 0 0 Z " fill="#D6FBFC" transform="translate(233,109)"/>
<path d="M0 0 C-1.20632452 3.43338516 -2.38477184 5.50364585 -5 8 C-5 8.66 -5 9.32 -5 10 C-4.01 10.66 -3.02 11.32 -2 12 C-2.33 12.66 -2.66 13.32 -3 14 C-7.41889613 12.64978174 -9.34345343 10.73884332 -12 7 C-10.56967163 5.82455195 -9.13046758 4.65989738 -7.6875 3.5 C-6.88699219 2.8503125 -6.08648437 2.200625 -5.26171875 1.53125 C-3 0 -3 0 0 0 Z " fill="#318EE5" transform="translate(194,63)"/>
<path d="M0 0 C0.66 0 1.32 0 2 0 C2 1.65 2 3.3 2 5 C3.65 5.33 5.3 5.66 7 6 C7.0272415 7.41655793 7.04650467 8.83327045 7.0625 10.25 C7.07410156 11.03890625 7.08570313 11.8278125 7.09765625 12.640625 C7.00385306 14.90691002 6.63241063 16.8288895 6 19 C5.34 19 4.68 19 4 19 C3.32900016 16.39688008 2.66304662 13.79264602 2 11.1875 C1.80921875 10.44951172 1.6184375 9.71152344 1.421875 8.95117188 C0.64737086 5.89464659 0 3.16626522 0 0 Z " fill="#5BDCF4" transform="translate(182,101)"/>
<path d="M0 0 C0.33 0.99 0.66 1.98 1 3 C1.99 3.33 2.98 3.66 4 4 C4.33 5.98 4.66 7.96 5 10 C5.66 10 6.32 10 7 10 C7 10.66 7 11.32 7 12 C5.68 11.67 4.36 11.34 3 11 C2.67 9.02 2.34 7.04 2 5 C1.34 5 0.68 5 0 5 C-0.33 6.98 -0.66 8.96 -1 11 C-0.34 11 0.32 11 1 11 C1 11.66 1 12.32 1 13 C0.01 13 -0.98 13 -2 13 C-1.67 14.32 -1.34 15.64 -1 17 C-2.32 16.67 -3.64 16.34 -5 16 C-4.34 12.7 -3.68 9.4 -3 6 C-2.34 6 -1.68 6 -1 6 C-0.67 4.02 -0.34 2.04 0 0 Z " fill="#042FA4" transform="translate(105,65)"/>
<path d="M0 0 C0.33 0 0.66 0 1 0 C0.98839844 0.77085938 0.97679687 1.54171875 0.96484375 2.3359375 C0.95582031 3.33882813 0.94679687 4.34171875 0.9375 5.375 C0.92589844 6.37273437 0.91429687 7.37046875 0.90234375 8.3984375 C0.81993398 10.98432453 0.81993398 10.98432453 2 13 C-1 14 -1 14 -4.1875 12.5625 C-5.115625 12.046875 -6.04375 11.53125 -7 11 C-2.57493188 3.0653951 -2.57493188 3.0653951 0 0 Z " fill="#3789F3" transform="translate(170,62)"/>
<path d="M0 0 C-0.33 0.66 -0.66 1.32 -1 2 C-2.32 2 -3.64 2 -5 2 C-5 2.99 -5 3.98 -5 5 C-5.54269531 5.23074219 -6.08539063 5.46148437 -6.64453125 5.69921875 C-11.33094436 7.83554761 -13.5362034 9.33175381 -16 14 C-16.99 14 -17.98 14 -19 14 C-16.13800365 7.63380323 -7.56648466 -2.52216155 0 0 Z " fill="#0D1A88" transform="translate(141,42)"/>
<path d="M0 0 C2.62187494 1.04874998 3.79371361 1.64931313 5.25 4.125 C5.4975 4.74375 5.745 5.3625 6 6 C7.32 5.67 8.64 5.34 10 5 C10 5.66 10 6.32 10 7 C5.05 7 0.1 7 -5 7 C-4.34 5.68 -3.68 4.36 -3 3 C-2.01 3 -1.02 3 0 3 C0 2.01 0 1.02 0 0 Z " fill="#5ABFF7" transform="translate(187,76)"/>
<path d="M0 0 C2.10353495 -0.0810206 4.20795952 -0.13919907 6.3125 -0.1875 C7.48425781 -0.22230469 8.65601562 -0.25710937 9.86328125 -0.29296875 C13 0 13 0 14.91796875 1.51171875 C15.27503906 2.00285156 15.63210937 2.49398437 16 3 C15.01 5.31 14.02 7.62 13 10 C12.01 10 11.02 10 10 10 C10.66 9.34 11.32 8.68 12 8 C11.67 6.68 11.34 5.36 11 4 C7.37 3.34 3.74 2.68 0 2 C0 1.34 0 0.68 0 0 Z " fill="#0535AE" transform="translate(86,82)"/>
<path d="M0 0 C3.32829881 4.19655067 4.15202876 7.23471937 4.1875 12.5625 C4.20167969 13.53316406 4.21585938 14.50382812 4.23046875 15.50390625 C4 18 4 18 2 20 C1.01 20 0.02 20 -1 20 C-2.38671875 18.46875 -2.38671875 18.46875 -3.6875 16.5 C-4.34298828 15.52546875 -4.34298828 15.52546875 -5.01171875 14.53125 C-5.50091797 13.77328125 -5.50091797 13.77328125 -6 13 C-4 13 -2 13 0 13 C0.33 14.32 0.66 15.64 1 17 C1.33 16.67 1.66 16.34 2 16 C1.93511249 14.43385158 1.7973337 12.87048984 1.625 11.3125 C1.52574219 10.41402344 1.42648438 9.51554687 1.32421875 8.58984375 C0.96372576 5.71024309 0.52575724 2.8541107 0 0 Z " fill="#3380D0" transform="translate(194,62)"/>
<path d="M0 0 C0 0.66 0 1.32 0 2 C-2.31 3.32 -4.62 4.64 -7 6 C-6.67 6.66 -6.34 7.32 -6 8 C-6.33 8.66 -6.66 9.32 -7 10 C-8.65 10 -10.3 10 -12 10 C-12 9.34 -12 8.68 -12 8 C-13.65 8 -15.3 8 -17 8 C-16.34 7.01 -15.68 6.02 -15 5 C-14.34 5 -13.68 5 -13 5 C-13 5.66 -13 6.32 -13 7 C-12.071875 6.2575 -12.071875 6.2575 -11.125 5.5 C-9 4 -9 4 -7 4 C-7 3.34 -7 2.68 -7 2 C-2.25 0 -2.25 0 0 0 Z " fill="#53C7FB" transform="translate(162,84)"/>
<path d="M0 0 C0.73347656 -0.01611328 1.46695313 -0.03222656 2.22265625 -0.04882812 C7.05831515 -0.0531534 10.25457847 0.76659057 14.5 3.3125 C10.97713054 4.4448509 10.97713054 4.4448509 8.82421875 3.84765625 C5.55113799 3.09402253 2.4171038 3.18085064 -0.9375 3.1875 C-2.88462891 3.18363281 -2.88462891 3.18363281 -4.87109375 3.1796875 C-7.90111541 3.29058173 -10.56498638 3.59995334 -13.5 4.3125 C-13.83 3.6525 -14.16 2.9925 -14.5 2.3125 C-9.52808243 0.3378935 -5.26286576 -0.02312331 0 0 Z " fill="#D9DAF6" transform="translate(155.5,35.6875)"/>
<path d="M0 0 C2 3 2 3 1.625 5.6875 C1.41875 6.450625 1.2125 7.21375 1 8 C0.40832031 7.86722656 -0.18335937 7.73445313 -0.79296875 7.59765625 C-4.85446525 6.68994822 -8.91374171 5.7908887 -13 5 C-12.67 3.68 -12.34 2.36 -12 1 C-8.04179141 1.56545837 -5.3340947 2.80902348 -2 5 C-1.34 3.35 -0.68 1.7 0 0 Z " fill="#101D83" transform="translate(121,56)"/>
<path d="M0 0 C2.9375 0.8125 2.9375 0.8125 6 2 C6.33 2.99 6.66 3.98 7 5 C5.98679687 5.48919922 5.98679687 5.48919922 4.953125 5.98828125 C3.61507812 6.64376953 3.61507812 6.64376953 2.25 7.3125 C1.36828125 7.74175781 0.4865625 8.17101563 -0.421875 8.61328125 C-2.81600215 9.90103146 -4.87776958 11.30915754 -7 13 C-7 11.68 -7 10.36 -7 9 C-6.21625 8.54625 -5.4325 8.0925 -4.625 7.625 C-1.25938418 5.54152354 -0.91748986 3.75336759 0 0 Z " fill="#E9EEF2" transform="translate(81,50)"/>
<path d="M0 0 C0.99 0 1.98 0 3 0 C3 0.66 3 1.32 3 2 C3.78375 1.79375 4.5675 1.5875 5.375 1.375 C6.674375 1.189375 6.674375 1.189375 8 1 C8.66 1.66 9.32 2.32 10 3 C12.21072977 3.24253813 12.21072977 3.24253813 14.625 3.125 C15.44226562 3.10695313 16.25953125 3.08890625 17.1015625 3.0703125 C17.72804688 3.04710938 18.35453125 3.02390625 19 3 C19.33 4.32 19.66 5.64 20 7 C17.03 6.34 14.06 5.68 11 5 C11 5.66 11 6.32 11 7 C10.34 7 9.68 7 9 7 C9 6.34 9 5.68 9 5 C7.88625 4.9175 6.7725 4.835 5.625 4.75 C2 4 2 4 0.5625 1.9375 C0.376875 1.298125 0.19125 0.65875 0 0 Z " fill="#062CA4" transform="translate(47,115)"/>
<path d="M0 0 C1.67542976 0.28604898 3.34385343 0.61781233 5 1 C5 2.98 5 4.96 5 7 C4.21625 7.061875 3.4325 7.12375 2.625 7.1875 C1.75875 7.455625 0.8925 7.72375 0 8 C-1.37466625 10.47636012 -1.37466625 10.47636012 -2 13 C-2.66 11.68 -3.32 10.36 -4 9 C-3.34 9 -2.68 9 -2 9 C-1.7834375 7.0509375 -1.7834375 7.0509375 -1.5625 5.0625 C-1.125 1.125 -1.125 1.125 0 0 Z " fill="#61E2F9" transform="translate(171,102)"/>
<path d="M0 0 C0.66 0.33 1.32 0.66 2 1 C-0.475 4.465 -0.475 4.465 -3 8 C-1.35 9.98 0.3 11.96 2 14 C-1.33333333 13.33333333 -4.66666667 12.66666667 -8 12 C-8 11.01 -8 10.02 -8 9 C-7.34 9 -6.68 9 -6 9 C-5.71125 8.401875 -5.4225 7.80375 -5.125 7.1875 C-4 5 -4 5 -2 2 C-1.34 2 -0.68 2 0 2 C0 1.34 0 0.68 0 0 Z " fill="#ADFDFE" transform="translate(224,104)"/>
<path d="M0 0 C0.66 0 1.32 0 2 0 C2.99 2.64 3.98 5.28 5 8 C3.35 9.98 1.7 11.96 0 14 C-0.66 13.01 -1.32 12.02 -2 11 C-1.67 10.34 -1.34 9.68 -1 9 C-0.77532169 7.46331135 -0.59203195 5.92031946 -0.4375 4.375 C-0.35371094 3.55773437 -0.26992187 2.74046875 -0.18359375 1.8984375 C-0.12300781 1.27195312 -0.06242188 0.64546875 0 0 Z " fill="#1F61DD" transform="translate(159,64)"/>
<path d="M0 0 C0.99 0.33 1.98 0.66 3 1 C2.34 2.65 1.68 4.3 1 6 C0.01 6 -0.98 6 -2 6 C-2 7.98 -2 9.96 -2 12 C-2.66 11.67 -3.32 11.34 -4 11 C-4 10.34 -4 9.68 -4 9 C-4.66 9 -5.32 9 -6 9 C-6.33 10.32 -6.66 11.64 -7 13 C-7.33 12.01 -7.66 11.02 -8 10 C-6.85546875 8.02734375 -6.85546875 8.02734375 -5.1875 5.9375 C-4.37345703 4.89916016 -4.37345703 4.89916016 -3.54296875 3.83984375 C-2 2 -2 2 0 0 Z " fill="#061877" transform="translate(77,60)"/>
<path d="M0 0 C2.4375 0.375 2.4375 0.375 5 1 C5.33 1.66 5.66 2.32 6 3 C6.66 3 7.32 3 8 3 C8.45375 3.969375 8.9075 4.93875 9.375 5.9375 C10.65786221 9.07079582 10.65786221 9.07079582 13 10 C13.59355614 12.64860427 13.74209269 15.29197322 14 18 C13.34 17.01 12.68 16.02 12 15 C8.23457641 9.78284683 4.23617871 4.8413471 0 0 Z " fill="#D3E6FD" transform="translate(182,46)"/>
<path d="M0 0 C1.31722179 0.42307123 2.62872664 0.86397486 3.9375 1.3125 C4.66839844 1.55613281 5.39929688 1.79976562 6.15234375 2.05078125 C8 3 8 3 9 6 C4.99799622 7.60080151 1.95443764 6.29279692 -2 5 C-1.34 3.35 -0.68 1.7 0 0 Z " fill="#0C26A6" transform="translate(169,40)"/>
<path d="M0 0 C1.32 0 2.64 0 4 0 C4.33 0.99 4.66 1.98 5 3 C4.01 4.485 4.01 4.485 3 6 C2.54860541 8.0492094 2.54860541 8.0492094 2.375 10.1875 C2.25125 11.445625 2.1275 12.70375 2 14 C1.67 14 1.34 14 1 14 C1 11.36 1 8.72 1 6 C-0.65 5.67 -2.3 5.34 -4 5 C-3.67 3.68 -3.34 2.36 -3 1 C-3 1.66 -3 2.32 -3 3 C-2.34 3 -1.68 3 -1 3 C-0.67 2.01 -0.34 1.02 0 0 Z " fill="#6EE9F9" transform="translate(188,101)"/>
<path d="M0 0 C2.97 0.495 2.97 0.495 6 1 C6 1.66 6 2.32 6 3 C4.35 3.33 2.7 3.66 1 4 C1 4.66 1 5.32 1 6 C-2.46153846 9 -2.46153846 9 -5 9 C-5.33 8.01 -5.66 7.02 -6 6 C-5.34 6 -4.68 6 -4 6 C-4 5.34 -4 4.68 -4 4 C-2.68 3.67 -1.36 3.34 0 3 C0 2.01 0 1.02 0 0 Z " fill="#48ADFD" transform="translate(154,82)"/>
<path d="M0 0 C0.99 0.33 1.98 0.66 3 1 C3 1.66 3 2.32 3 3 C2.34 3 1.68 3 1 3 C1.99 4.485 1.99 4.485 3 6 C3.39013716 7.9896995 3.73202649 9.99019869 4 12 C0.76138705 12 -1.09740189 11.3749149 -4 10 C-4.33 9.34 -4.66 8.68 -5 8 C-3.68 8 -2.36 8 -1 8 C-1.020625 6.865625 -1.04125 5.73125 -1.0625 4.5625 C-1 1 -1 1 0 0 Z " fill="#022591" transform="translate(165,45)"/>
<path d="M0 0 C0.66 0.33 1.32 0.66 2 1 C0.71937515 2.7074998 -0.61767557 4.37373596 -2 6 C-2.66 6 -3.32 6 -4 6 C-4 6.99 -4 7.98 -4 9 C-2.35 9 -0.7 9 1 9 C1.33 9.66 1.66 10.32 2 11 C0.02 11.66 -1.96 12.32 -4 13 C-4 12.01 -4 11.02 -4 10 C-4.66 10 -5.32 10 -6 10 C-6.33 8.35 -6.66 6.7 -7 5 C-6.21625 4.54625 -5.4325 4.0925 -4.625 3.625 C-1.96301969 2.11571258 -1.96301969 2.11571258 0 0 Z " fill="#91F5FC" transform="translate(220,107)"/>
<path d="M0 0 C0.99 0 1.98 0 3 0 C1.79618552 2.49361571 0.54571278 4.68143083 -1 7 C-1.99 7 -2.98 7 -4 7 C-4.268125 7.639375 -4.53625 8.27875 -4.8125 8.9375 C-6 11 -6 11 -9 12 C-8.49396008 9.83125748 -8.00016187 8.00032373 -7 6 C-6.195625 5.525625 -5.39125 5.05125 -4.5625 4.5625 C-1.7644028 3.10335955 -1.7644028 3.10335955 0 0 Z " fill="#2075E8" transform="translate(113,96)"/>
<path d="M0 0 C2 3 2 3 1.625 5.1875 C1.41875 5.785625 1.2125 6.38375 1 7 C1.66 7.33 2.32 7.66 3 8 C-0.8503105 10.56687367 -2.58569763 9.83288724 -7 9 C-6.01 8.67 -5.02 8.34 -4 8 C-3.63451555 6.67511887 -3.3062434 5.33981486 -3 4 C-1.4375 1.75 -1.4375 1.75 0 0 Z " fill="#419EF7" transform="translate(162,73)"/>
<path d="M0 0 C5.3416679 3.20500074 10.06754553 7.13932658 14 12 C14 12.99 14 13.98 14 15 C12.35 14.67 10.7 14.34 9 14 C9.33 12.68 9.66 11.36 10 10 C9.34 10 8.68 10 8 10 C7.360625 9.195625 6.72125 8.39125 6.0625 7.5625 C4.18964068 4.76279268 4.18964068 4.76279268 1 4 C0.3125 1.9375 0.3125 1.9375 0 0 Z " fill="#1C3EB3" transform="translate(178,44)"/>
<path d="M0 0 C0.99 0.33 1.98 0.66 3 1 C3 1.66 3 2.32 3 3 C5.97 3.495 5.97 3.495 9 4 C6.56642204 6.43357796 5.48501131 6.41100776 2.125 6.75 C1.26132813 6.84796875 0.39765625 6.9459375 -0.4921875 7.046875 C-3.22283899 6.99583479 -4.68653065 6.39884193 -7 5 C-5.02 4.67 -3.04 4.34 -1 4 C-0.67 2.68 -0.34 1.36 0 0 Z " fill="#0650D4" transform="translate(179,54)"/>
<path d="M0 0 C2.54926402 1.27463201 2.86801636 2.43417043 4 5 C5.2077558 8.62326739 4.54311128 9.64146369 3 13 C1.35 11.35 -0.3 9.7 -2 8 C-1.34 7.01 -0.68 6.02 0 5 C-0.39938767 2.90178785 -0.39938767 2.90178785 -1 1 C-0.67 0.67 -0.34 0.34 0 0 Z " fill="#063BA7" transform="translate(71,115)"/>
<path d="M0 0 C-0.66 2.31 -1.32 4.62 -2 7 C-3.98 7 -5.96 7 -8 7 C-7.34 4.69 -6.68 2.38 -6 0 C-2.25 -1.125 -2.25 -1.125 0 0 Z " fill="#2DC5F8" transform="translate(139,120)"/>
<path d="M0 0 C0.33 0 0.66 0 1 0 C1 1.65 1 3.3 1 5 C1.66 5 2.32 5 3 5 C2.125 9.75 2.125 9.75 1 12 C-1.99332739 11.0022242 -2.94766315 10.2477975 -5 8 C-4.67 7.34 -4.34 6.68 -4 6 C-2.02 6.495 -2.02 6.495 0 7 C-0.185625 6.030625 -0.37125 5.06125 -0.5625 4.0625 C-0.706875 3.051875 -0.85125 2.04125 -1 1 C-0.67 0.67 -0.34 0.34 0 0 Z " fill="#01107F" transform="translate(47,79)"/>
<path d="M0 0 C3.3 0 6.6 0 10 0 C9.67 1.65 9.34 3.3 9 5 C6.03 4.67 3.06 4.34 0 4 C0 2.66666667 0 1.33333333 0 0 Z " fill="#122093" transform="translate(56,72)"/>
<path d="M0 0 C0.33 0 0.66 0 1 0 C0.125 7.875 0.125 7.875 -1 9 C-3.67058851 9.14115161 -6.32432238 9.04247107 -9 9 C-8.67 8.34 -8.34 7.68 -8 7 C-7.34 7 -6.68 7 -6 7 C-6 6.34 -6 5.68 -6 5 C-5.195625 4.731875 -4.39125 4.46375 -3.5625 4.1875 C-2.716875 3.795625 -1.87125 3.40375 -1 3 C-0.67 2.01 -0.34 1.02 0 0 Z " fill="#0879DF" transform="translate(128,118)"/>
<path d="M0 0 C0.33 0 0.66 0 1 0 C1 1.65 1 3.3 1 5 C0.38125 5.226875 -0.2375 5.45375 -0.875 5.6875 C-3.65367862 7.40374268 -3.91815865 8.97084422 -5 12 C-5.95824253 13.36365283 -6.94721175 14.70794169 -8 16 C-8.3636198 11.75776898 -7.5393228 9.41831915 -5 6 C-4.34 6 -3.68 6 -3 6 C-2.67 4.68 -2.34 3.36 -2 2 C-1.34 2 -0.68 2 0 2 C0 1.34 0 0.68 0 0 Z " fill="#082BB0" transform="translate(59,77)"/>
<path d="M0 0 C1.4540625 0.0309375 1.4540625 0.0309375 2.9375 0.0625 C2.9375 1.0525 2.9375 2.0425 2.9375 3.0625 C2.2775 3.0625 1.6175 3.0625 0.9375 3.0625 C0.9375 3.7225 0.9375 4.3825 0.9375 5.0625 C0.2775 5.0625 -0.3825 5.0625 -1.0625 5.0625 C-1.0625 6.0525 -1.0625 7.0425 -1.0625 8.0625 C-1.7225 8.0625 -2.3825 8.0625 -3.0625 8.0625 C-3.44313221 5.7364143 -3.77519945 3.40194736 -4.0625 1.0625 C-3.0625 0.0625 -3.0625 0.0625 0 0 Z " fill="#094DC0" transform="translate(96.0625,103.9375)"/>
<path d="M0 0 C2.31 0 4.62 0 7 0 C7 1.65 7 3.3 7 5 C5.25 5.6875 5.25 5.6875 3 6 C0.75 4.5625 0.75 4.5625 -1 3 C-0.67 2.01 -0.34 1.02 0 0 Z " fill="#7CF0FE" transform="translate(204,85)"/>
<path d="M0 0 C1.65 0 3.3 0 5 0 C5 2.31 5 4.62 5 7 C3.68 7 2.36 7 1 7 C0.67 4.69 0.34 2.38 0 0 Z " fill="#9AF0F3" transform="translate(229,100)"/>
<path d="M0 0 C7.50769231 -0.36923077 7.50769231 -0.36923077 10 1.5 C10.495 2.2425 10.495 2.2425 11 3 C7.91190305 4.76462683 6.76687864 5 3 5 C3 4.34 3 3.68 3 3 C2.34 3 1.68 3 1 3 C0.67 2.01 0.34 1.02 0 0 Z " fill="#093EA5" transform="translate(103,83)"/>
<path d="M0 0 C-0.33 1.65 -0.66 3.3 -1 5 C-3.31 5.33 -5.62 5.66 -8 6 C-8.33 4.35 -8.66 2.7 -9 1 C-5.92677456 0.08941469 -3.19902639 -0.08886184 0 0 Z " fill="#0A2C8D" transform="translate(64,122)"/>
<path d="M0 0 C0.66 0 1.32 0 2 0 C2 0.66 2 1.32 2 2 C2.66 2 3.32 2 4 2 C4 3.65 4 5.3 4 7 C4.99 7 5.98 7 7 7 C7.33 9.97 7.66 12.94 8 16 C6 12 6 12 6 8 C4.68 8 3.36 8 2 8 C0.23537317 4.91190305 0 3.76687864 0 0 Z " fill="#DAF7F9" transform="translate(227,88)"/>
<path d="M0 0 C0.66 0.33 1.32 0.66 2 1 C-3.04615385 6.78461538 -3.04615385 6.78461538 -7.875 7.875 C-9.421875 7.936875 -9.421875 7.936875 -11 8 C-10.01 7.67 -9.02 7.34 -8 7 C-8 6.01 -8 5.02 -8 4 C-7.01 4 -6.02 4 -5 4 C-5 3.34 -5 2.68 -5 2 C-2.625 0.9375 -2.625 0.9375 0 0 Z " fill="#042DB1" transform="translate(72,84)"/>
<path d="M0 0 C0.66 0 1.32 0 2 0 C2 0.99 2 1.98 2 3 C2.66 3 3.32 3 4 3 C3.42424336 6.35250701 2.40693737 7.93818629 -0.0625 10.25 C-0.61035156 10.77078125 -1.15820312 11.2915625 -1.72265625 11.828125 C-2.14417969 12.21484375 -2.56570312 12.6015625 -3 13 C-3.66 12.67 -4.32 12.34 -5 12 C-4.360625 11.505 -3.72125 11.01 -3.0625 10.5 C-0.18484731 7.01193613 -0.29769264 4.46538959 0 0 Z " fill="#70D9F5" transform="translate(208,91)"/>
<path d="M0 0 C2.64 0.33 5.28 0.66 8 1 C8 2.32 8 3.64 8 5 C4.7 4.67 1.4 4.34 -2 4 C-2 3.34 -2 2.68 -2 2 C-1.34 2 -0.68 2 0 2 C0 1.34 0 0.68 0 0 Z " fill="#97EAF3" transform="translate(208,81)"/>
<path d="M0 0 C-0.61277612 2.96175123 -1.25372522 4.38058783 -3 7 C-4.32 6.67 -5.64 6.34 -7 6 C-6.6875 4.125 -6.6875 4.125 -6 2 C-3 0 -3 0 0 0 Z " fill="#6FDBFC" transform="translate(182,72)"/>
<path d="M0 0 C0.99 0 1.98 0 3 0 C3.45375 0.78375 3.9075 1.5675 4.375 2.375 C6.30078373 5.48588141 7.63001413 5.8471101 11 7 C11.33 7.66 11.66 8.32 12 9 C9.36 8.67 6.72 8.34 4 8 C4 7.34 4 6.68 4 6 C3.34 6 2.68 6 2 6 C1.87625 5.360625 1.7525 4.72125 1.625 4.0625 C1.315625 3.0415625 1.315625 3.0415625 1 2 C0.34 1.67 -0.32 1.34 -1 1 C-0.67 0.67 -0.34 0.34 0 0 Z " fill="#0F38AB" transform="translate(156,50)"/>
<path d="M0 0 C3 0 3 0 4.6875 1.375 C6 3 6 3 6 5 C7.32 5.33 8.64 5.66 10 6 C9.67 6.99 9.34 7.98 9 9 C5.14341602 6.84921278 1.45680903 4.76544722 -2 2 C-1.34 2 -0.68 2 0 2 C0 1.34 0 0.68 0 0 Z " fill="#E0E7F5" transform="translate(108,52)"/>
<path d="M0 0 C0.99 0.33 1.98 0.66 3 1 C4.6691198 4.61642624 3.65669883 8.20574012 3 12 C2.01 11.67 1.02 11.34 0 11 C0 7.37 0 3.74 0 0 Z " fill="#A6FCFD" transform="translate(215,84)"/>
<path d="M0 0 C0.99 0.99 1.98 1.98 3 3 C1.60387736 5.79224529 -0.30488274 6.44282114 -3 8 C-4.03125 8.7425 -5.0625 9.485 -6.125 10.25 C-7.07375 10.8275 -8.0225 11.405 -9 12 C-9.99 11.67 -10.98 11.34 -12 11 C-10.3790787 9.82767315 -8.75313167 8.6622923 -7.125 7.5 C-5.76761719 6.52546875 -5.76761719 6.52546875 -4.3828125 5.53125 C-2 4 -2 4 0 4 C0 2.68 0 1.36 0 0 Z " fill="#4EA7EF" transform="translate(192,58)"/>
<path d="M0 0 C-1.19976014 3.08509749 -2.48204961 6.05897112 -4 9 C-4.37125 9.7425 -4.7425 10.485 -5.125 11.25 C-5.41375 11.8275 -5.7025 12.405 -6 13 C-7.13657056 7.84171822 -7.13657056 7.84171822 -7 5 C-3.14583333 0 -3.14583333 0 0 0 Z " fill="#1369DB" transform="translate(111,103)"/>
<path d="M0 0 C2.48620049 1.06551449 4.03717151 2.03837059 5.9375 4 C8.18008724 6.17463005 10.06219679 7.02073226 13 8 C13 8.66 13 9.32 13 10 C7.6936539 8.51915923 3.5456545 6.64969342 0.6875 1.75 C0.3471875 0.88375 0.3471875 0.88375 0 0 Z " fill="#142264" transform="translate(37,115)"/>
<path d="M0 0 C0.33 0.66 0.66 1.32 1 2 C0.01 2.33 -0.98 2.66 -2 3 C-2.33 3.99 -2.66 4.98 -3 6 C-4.65 6 -6.3 6 -8 6 C-7.67 4.68 -7.34 3.36 -7 2 C-4.69 1.34 -2.38 0.68 0 0 Z " fill="#2E81F0" transform="translate(157,79)"/>
<path d="M0 0 C0.66 0 1.32 0 2 0 C2 1.98 2 3.96 2 6 C1.01 6.495 1.01 6.495 0 7 C-0.72159424 8.64363134 -1.39351421 10.31050386 -2 12 C-2.66 11.01 -3.32 10.02 -4 9 C-3.67 8.01 -3.34 7.02 -3 6 C-2.34 5.67 -1.68 5.34 -1 5 C-0.34444881 2.47266765 -0.34444881 2.47266765 0 0 Z " fill="#CDF6F7" transform="translate(233,109)"/>
<path d="M0 0 C0.99 0 1.98 0 3 0 C3 2.64 3 5.28 3 8 C2.67 7.34 2.34 6.68 2 6 C1.34 6 0.68 6 0 6 C-0.33 6.66 -0.66 7.32 -1 8 C-1.625 5.6875 -1.625 5.6875 -2 3 C-1.34 2.01 -0.68 1.02 0 0 Z " fill="#2BA9F0" transform="translate(140,112)"/>
<path d="M0 0 C3 3.625 3 3.625 3 7 C2.34 7 1.68 7 1 7 C1 8.65 1 10.3 1 12 C0.34 11.67 -0.32 11.34 -1 11 C-1.0270043 9.54176788 -1.04639787 8.08339325 -1.0625 6.625 C-1.07410156 5.81289062 -1.08570312 5.00078125 -1.09765625 4.1640625 C-1 2 -1 2 0 0 Z " fill="#218EF4" transform="translate(129,100)"/>
<path d="M0 0 C-0.62759865 2.92879371 -1.58622659 5.36095629 -3 8 C-3.66 8 -4.32 8 -5 8 C-5.66 6.68 -6.32 5.36 -7 4 C-6.34 4 -5.68 4 -5 4 C-5 3.34 -5 2.68 -5 2 C-2 0 -2 0 0 0 Z " fill="#0E2FC1" transform="translate(48,92)"/>
<path d="M0 0 C-1 2 -1 2 -3.3125 3.125 C-6 4 -6 4 -10 4 C-9 1 -9 1 -6.6875 -0.25 C-3.90126985 -1.0275526 -2.66561622 -0.98726527 0 0 Z " fill="#0E1673" transform="translate(92,55)"/>
<path d="M0 0 C0.66 0.33 1.32 0.66 2 1 C2 1.66 2 2.32 2 3 C1.01 3 0.02 3 -1 3 C-1 4.65 -1 6.3 -1 8 C-2.65 8.33 -4.3 8.66 -6 9 C-5.01 8.34 -4.02 7.68 -3 7 C-3.66 6.67 -4.32 6.34 -5 6 C-3.86695008 2.60085025 -2.87481525 1.94745549 0 0 Z " fill="#022389" transform="translate(66,109)"/>
<path d="M0 0 C0 3 0 3 -1.53125 4.60546875 C-2.1809375 5.12753906 -2.830625 5.64960937 -3.5 6.1875 C-4.1496875 6.71730469 -4.799375 7.24710937 -5.46875 7.79296875 C-5.9740625 8.19128906 -6.479375 8.58960937 -7 9 C-8 7 -8 7 -7.4375 5.0625 C-5.4649748 2.23235515 -3.11504004 1.35436524 0 0 Z " fill="#0F34AE" transform="translate(55,96)"/>
<path d="M0 0 C1.40907283 2.81814566 0.50872691 4.17277204 -0.4375 7.125 C-0.72496094 8.03507812 -1.01242188 8.94515625 -1.30859375 9.8828125 C-1.53675781 10.58148438 -1.76492187 11.28015625 -2 12 C-2.99 11.67 -3.98 11.34 -5 11 C-4.54917531 9.53932801 -4.08906463 8.08151968 -3.625 6.625 C-3.36976562 5.81289062 -3.11453125 5.00078125 -2.8515625 4.1640625 C-2 2 -2 2 0 0 Z " fill="#1D2F9B" transform="translate(38,84)"/>
<path d="M0 0 C0.33 0 0.66 0 1 0 C1.33 3.3 1.66 6.6 2 10 C2.99 10 3.98 10 5 10 C4.67 10.66 4.34 11.32 4 12 C1 11 1 11 -0.01953125 9.2578125 C-0.28121094 8.55398437 -0.54289062 7.85015625 -0.8125 7.125 C-1.08707031 6.42632812 -1.36164062 5.72765625 -1.64453125 5.0078125 C-2 3 -2 3 0 0 Z " fill="#182584" transform="translate(35,104)"/>
<path d="M0 0 C0.33 0.66 0.66 1.32 1 2 C1.66 2.165 2.32 2.33 3 2.5 C3.66 2.665 4.32 2.83 5 3 C5.33 3.66 5.66 4.32 6 5 C2.86650268 6.04449911 2.01031744 5.93423645 -1 5 C-1 4.34 -1 3.68 -1 3 C-1.66 2.67 -2.32 2.34 -3 2 C-2.01 1.34 -1.02 0.68 0 0 Z " fill="#0F238F" transform="translate(81,57)"/>
<path d="M0 0 C2.475 0.495 2.475 0.495 5 1 C4.67 2.32 4.34 3.64 4 5 C3.34 5 2.68 5 2 5 C2 5.66 2 6.32 2 7 C1.34 7 0.68 7 0 7 C0 4.69 0 2.38 0 0 Z " fill="#0C42D5" transform="translate(80,77)"/>
<path d="M0 0 C0.66 0.33 1.32 0.66 2 1 C2.625 3.5625 2.625 3.5625 3 6 C0.36 6 -2.28 6 -5 6 C-4.01 5.34 -3.02 4.68 -2 4 C-0.80767387 1.94996045 -0.80767387 1.94996045 0 0 Z " fill="#022585" transform="translate(64,122)"/>
<path d="M0 0 C2.475 0.495 2.475 0.495 5 1 C5 1.66 5 2.32 5 3 C4.34 3 3.68 3 3 3 C3 3.66 3 4.32 3 5 C3.66 5.33 4.32 5.66 5 6 C3.35 6 1.7 6 0 6 C0 4.02 0 2.04 0 0 Z " fill="#1060DA" transform="translate(80,121)"/>
<path d="M0 0 C0.66 0 1.32 0 2 0 C2 0.66 2 1.32 2 2 C1.34 2 0.68 2 0 2 C-0.061875 2.5775 -0.12375 3.155 -0.1875 3.75 C-1.32027301 6.88690987 -3.34197595 8.09167504 -6 10 C-5.1875 7.0625 -5.1875 7.0625 -4 4 C-3.01 3.67 -2.02 3.34 -1 3 C-0.67 2.01 -0.34 1.02 0 0 Z " fill="#011993" transform="translate(54,81)"/>
<path d="M0 0 C0.66 0 1.32 0 2 0 C2.66 1.65 3.32 3.3 4 5 C3.34 5 2.68 5 2 5 C1.67 5.99 1.34 6.98 1 8 C0.67 7.01 0.34 6.02 0 5 C-0.66 4.67 -1.32 4.34 -2 4 C-1.34 2.68 -0.68 1.36 0 0 Z " fill="#07219D" transform="translate(71,69)"/>
<path d="M0 0 C0.99 0.33 1.98 0.66 3 1 C3.144375 1.78375 3.28875 2.5675 3.4375 3.375 C3.87798925 5.96421018 3.87798925 5.96421018 5 8 C4.01 9.485 4.01 9.485 3 11 C0.84694043 7.14243493 -0.39253254 4.44870215 0 0 Z " fill="#2259CD" transform="translate(125,69)"/>
<path d="M0 0 C2.56616632 3.84924948 2.55097676 6.4349304 3 11 C1.68 10.34 0.36 9.68 -1 9 C-0.67 6.03 -0.34 3.06 0 0 Z " fill="#3D9CE9" transform="translate(171,64)"/>
<path d="M0 0 C2.97 1.32 5.94 2.64 9 4 C9 4.99 9 5.98 9 7 C5.37 5.35 1.74 3.7 -2 2 C-1.34 1.34 -0.68 0.68 0 0 Z " fill="#DEE9FC" transform="translate(172,39)"/>
<path d="M0 0 C1.43836751 0.11458693 2.87570966 0.24209116 4.3125 0.375 C5.51326172 0.47941406 5.51326172 0.47941406 6.73828125 0.5859375 C9 1 9 1 12 3 C8.04 3 4.08 3 0 3 C0 2.01 0 1.02 0 0 Z " fill="#141D86" transform="translate(147,38)"/>
<path d="M0 0 C1.32 0.33 2.64 0.66 4 1 C3.34 2.32 2.68 3.64 2 5 C-1.96 5 -5.92 5 -10 5 C-10 4.67 -10 4.34 -10 4 C-6.37 4 -2.74 4 1 4 C0.67 2.68 0.34 1.36 0 0 Z " fill="#3FD4F5" transform="translate(148,123)"/>
<path d="M0 0 C0 1.65 0 3.3 0 5 C-1.98 5 -3.96 5 -6 5 C-6 3 -6 3 -4.6875 1.375 C-3 0 -3 0 0 0 Z " fill="#0755D0" transform="translate(80,122)"/>
<path d="M0 0 C2.97 0 5.94 0 9 0 C9 0.66 9 1.32 9 2 C8.34 2 7.68 2 7 2 C6.67 2.66 6.34 3.32 6 4 C4.02 3.01 2.04 2.02 0 1 C0 0.67 0 0.34 0 0 Z " fill="#86D9EE" transform="translate(199,81)"/>
<path d="M0 0 C0.99 0 1.98 0 3 0 C3 0.66 3 1.32 3 2 C3.66 2 4.32 2 5 2 C7.29648649 4.5614657 8 5.47967572 8 9 C7.34 9 6.68 9 6 9 C5.34 7.02 4.68 5.04 4 3 C2.68 3 1.36 3 0 3 C0 2.01 0 1.02 0 0 Z " fill="#0E2CAE" transform="translate(66,72)"/>
<path d="M0 0 C0.99 0.33 1.98 0.66 3 1 C0.03716687 3.38672669 -2.94270509 5.7353371 -6 8 C-6 6.68 -6 5.36 -6 4 C-3.1875 1.6875 -3.1875 1.6875 0 0 Z " fill="#DBE5FA" transform="translate(80,55)"/>
<path d="M0 0 C4.8333472 -0.08333357 9.23692563 0.04738513 14 1 C13.67 1.66 13.34 2.32 13 3 C8.18061476 3.23509196 4.53701494 2.45184478 0 1 C0 0.67 0 0.34 0 0 Z " fill="#22339B" transform="translate(92,53)"/>
<path d="M0 0 C0 0.66 0 1.32 0 2 C-3.3 2.66 -6.6 3.32 -10 4 C-10.33 3.34 -10.66 2.68 -11 2 C-7.17679443 0.57741188 -4.08718695 -0.24042276 0 0 Z " fill="#E2E9FB" transform="translate(152,36)"/>
<path d="M0 0 C0.66 1.32 1.32 2.64 2 4 C-2.455 3.01 -2.455 3.01 -7 2 C-7 2.66 -7 3.32 -7 4 C-7.66 4 -8.32 4 -9 4 C-9.33 3.01 -9.66 2.02 -10 1 C-6.7 0.67 -3.4 0.34 0 0 Z " fill="#0D38AD" transform="translate(65,118)"/>
<path d="M0 0 C1.32 0.66 2.64 1.32 4 2 C3.6875 3.9375 3.6875 3.9375 3 6 C2.01 6.33 1.02 6.66 0 7 C-0.38133299 5.0085944 -0.71325582 3.00720923 -1 1 C-0.67 0.67 -0.34 0.34 0 0 Z " fill="#0F23A4" transform="translate(37,107)"/>
<path d="M0 0 C0.66 0.99 1.32 1.98 2 3 C0.35 4.65 -1.3 6.3 -3 8 C-3.66 6.35 -4.32 4.7 -5 3 C-3.68 3.33 -2.36 3.66 -1 4 C-0.67 2.68 -0.34 1.36 0 0 Z " fill="#E5E7F5" transform="translate(40,77)"/>
<path d="M0 0 C1.04449911 3.13349732 0.93423645 3.98968256 0 7 C-0.33 6.01 -0.66 5.02 -1 4 C-1.66 4 -2.32 4 -3 4 C-3.33 5.32 -3.66 6.64 -4 8 C-4.33 7.01 -4.66 6.02 -5 5 C-3.35 3.35 -1.7 1.7 0 0 Z " fill="#09198A" transform="translate(74,65)"/>
<path d="M0 0 C0.66 0.66 1.32 1.32 2 2 C0.625 4 0.625 4 -1 6 C-1.66 6 -2.32 6 -3 6 C-3.33 6.66 -3.66 7.32 -4 8 C-4.99 8 -5.98 8 -7 8 C-7 7.34 -7 6.68 -7 6 C-6.401875 5.7525 -5.80375 5.505 -5.1875 5.25 C-2.71352479 3.83629988 -1.56629745 2.34944617 0 0 Z " fill="#0D4DB1" transform="translate(97,112)"/>
<path d="M0 0 C0.33 0 0.66 0 1 0 C1.10807131 1.93627769 1.1856225 3.87427756 1.25 5.8125 C1.29640625 6.89144531 1.3428125 7.97039062 1.390625 9.08203125 C1 12 1 12 -1.015625 13.88671875 C-1.67046875 14.25410156 -2.3253125 14.62148437 -3 15 C-2.67 13.68 -2.34 12.36 -2 11 C-1.34 11 -0.68 11 0 11 C0 7.37 0 3.74 0 0 Z " fill="#E7FAFB" transform="translate(235,104)"/>
<path d="M0 0 C0.33 0.99 0.66 1.98 1 3 C-0.98 3.99 -0.98 3.99 -3 5 C-3 5.66 -3 6.32 -3 7 C-4.32 6.34 -5.64 5.68 -7 5 C-6.401875 4.731875 -5.80375 4.46375 -5.1875 4.1875 C-3.02775192 3.01506533 -1.64209744 1.80630718 0 0 Z " fill="#77E0FD" transform="translate(207,96)"/>
<path d="M0 0 C0.99 0.33 1.98 0.66 3 1 C-0.32307692 4.93846154 -0.32307692 4.93846154 -3.75 5.25 C-4.4925 5.1675 -5.235 5.085 -6 5 C-4.06745228 2.9754262 -2.36841312 1.57894208 0 0 Z " fill="#48BCF0" transform="translate(160,86)"/>
<path d="M0 0 C0.66 0.33 1.32 0.66 2 1 C2 1.66 2 2.32 2 3 C-0.5 4.625 -0.5 4.625 -3 6 C-3.33 5.34 -3.66 4.68 -4 4 C-4.66 3.67 -5.32 3.34 -6 3 C-4.03533587 1.93224776 -2.03144641 0.93446535 0 0 Z " fill="#1543B6" transform="translate(138,60)"/>
<path d="M0 0 C2.97 0.495 2.97 0.495 6 1 C6 1.99 6 2.98 6 4 C6.99 4.33 7.98 4.66 9 5 C7.68 5 6.36 5 5 5 C5 4.34 5 3.68 5 3 C3.35 2.67 1.7 2.34 0 2 C0 1.34 0 0.68 0 0 Z " fill="#0020A3" transform="translate(106,62)"/>
<path d="M0 0 C1.9375 1 1.9375 1 4 3 C4.66549451 5.69924572 4.81680763 8.20631637 5 11 C0 3.5 0 3.5 0 0 Z " fill="#DAF4FD" transform="translate(191,53)"/>
<path d="M0 0 C0.99 0.33 1.98 0.66 3 1 C2.34 3.31 1.68 5.62 1 8 C-1 5 -1 5 -0.625 2.3125 C-0.41875 1.549375 -0.2125 0.78625 0 0 Z " fill="#0C52CB" transform="translate(93,104)"/>
<path d="M0 0 C0.99 0 1.98 0 3 0 C1.70700306 2.88437779 0.34058637 4.87219421 -2 7 C-2.33 6.01 -2.66 5.02 -3 4 C-1.75 1.8125 -1.75 1.8125 0 0 Z " fill="#1B69E2" transform="translate(113,96)"/>
<path d="M0 0 C0.66 0.99 1.32 1.98 2 3 C1.34 3 0.68 3 0 3 C-0.103125 3.639375 -0.20625 4.27875 -0.3125 4.9375 C-0.539375 5.618125 -0.76625 6.29875 -1 7 C-1.99 7.33 -2.98 7.66 -4 8 C-3.40072174 4.64404172 -2.15377564 2.62198774 0 0 Z " fill="#3B8CF8" transform="translate(162,73)"/>
<path d="M0 0 C2 2 2 2 2.125 4.625 C2.08375 5.40875 2.0425 6.1925 2 7 C1.34 7 0.68 7 0 7 C0 6.34 0 5.68 0 5 C-0.66 5 -1.32 5 -2 5 C-2 4.01 -2 3.02 -2 2 C-1.34 2 -0.68 2 0 2 C0 1.34 0 0.68 0 0 Z " fill="#0F3FAD" transform="translate(126,76)"/>
<path d="M0 0 C-1.75 4.875 -1.75 4.875 -4 6 C-4.33 4.35 -4.66 2.7 -5 1 C-3 0 -3 0 0 0 Z " fill="#0D4FC6" transform="translate(168,64)"/>
<path d="M0 0 C1.32 0.66 2.64 1.32 4 2 C4 2.99 4 3.98 4 5 C2.35 4.67 0.7 4.34 -1 4 C-0.67 2.68 -0.34 1.36 0 0 Z " fill="#1B55C4" transform="translate(188,54)"/>
<path d="M0 0 C0 0.99 0 1.98 0 3 C-1.65 3.33 -3.3 3.66 -5 4 C-5 3.01 -5 2.02 -5 1 C-3.35 0.67 -1.7 0.34 0 0 Z " fill="#50E7FE" transform="translate(168,115)"/>
<path d="M0 0 C2.31 0.33 4.62 0.66 7 1 C7 1.66 7 2.32 7 3 C4.69 2.67 2.38 2.34 0 2 C0 1.34 0 0.68 0 0 Z " fill="#2482F8" transform="translate(120,109)"/>
<path d="M0 0 C0.33 0.66 0.66 1.32 1 2 C1.66 2 2.32 2 3 2 C3.33 1.34 3.66 0.68 4 0 C4.33 1.65 4.66 3.3 5 5 C3.35 4.67 1.7 4.34 0 4 C0 2.68 0 1.36 0 0 Z " fill="#68E2FE" transform="translate(184,102)"/>
<path d="M0 0 C0.66 0.33 1.32 0.66 2 1 C1.67 2.65 1.34 4.3 1 6 C0.34 6 -0.32 6 -1 6 C-1 5.01 -1 4.02 -1 3 C-1.66 2.67 -2.32 2.34 -3 2 C-2.01 1.34 -1.02 0.68 0 0 Z " fill="#1559CC" transform="translate(119,90)"/>
<path d="M0 0 C0.5534764 2.07553648 1 3.84365964 1 6 C-0.9375 5.6875 -0.9375 5.6875 -3 5 C-3.33 4.01 -3.66 3.02 -4 2 C-2.68 2 -1.36 2 0 2 C0 1.34 0 0.68 0 0 Z " fill="#2D89F6" transform="translate(131,88)"/>
<path d="M0 0 C2.31 0 4.62 0 7 0 C7 0.66 7 1.32 7 2 C2.25 3.125 2.25 3.125 0 2 C0 1.34 0 0.68 0 0 Z " fill="#1048D6" transform="translate(91,72)"/>
<path d="M0 0 C0.66 0.33 1.32 0.66 2 1 C0.6875 3.5 0.6875 3.5 -1 6 C-1.99 6 -2.98 6 -4 6 C-2.84826645 3.53199953 -1.95216435 1.95216435 0 0 Z " fill="#091979" transform="translate(126,50)"/>
</svg>
